<svg id="visual" viewBox="0 0 900 100" width="900" height="100" xmlns="http://www.w3.org/2000/svg" xmlns:xlink="http://www.w3.org/1999/xlink" version="1.1"><rect x="0" y="0" width="900" height="100" fill="#131313"></rect><path d="M0 73L6.5 72.3C13 71.7 26 70.3 39 70.2C52 70 65 71 78 67.3C91 63.7 104 55.3 117.2 51.3C130.3 47.3 143.7 47.7 156.8 55.3C170 63 183 78 196 79.5C209 81 222 69 235 66.8C248 64.7 261 72.3 274 73.2C287 74 300 68 313 67.8C326 67.7 339 73.3 352 69.7C365 66 378 53 391 46.2C404 39.3 417 38.7 430.2 41C443.3 43.3 456.7 48.7 469.8 54.2C483 59.7 496 65.3 509 66.7C522 68 535 65 548 68C561 71 574 80 587 82C600 84 613 79 626 78.7C639 78.3 652 82.7 665 85.3C678 88 691 89 704 87.8C717 86.7 730 83.3 743.2 83.5C756.3 83.7 769.7 87.3 782.8 82.2C796 77 809 63 822 55.5C835 48 848 47 861 46C874 45 887 44 893.5 43.5L900 43L900 0L893.5 0C887 0 874 0 861 0C848 0 835 0 822 0C809 0 796 0 782.8 0C769.7 0 756.3 0 743.2 0C730 0 717 0 704 0C691 0 678 0 665 0C652 0 639 0 626 0C613 0 600 0 587 0C574 0 561 0 548 0C535 0 522 0 509 0C496 0 483 0 469.8 0C456.7 0 443.3 0 430.2 0C417 0 404 0 391 0C378 0 365 0 352 0C339 0 326 0 313 0C300 0 287 0 274 0C261 0 248 0 235 0C222 0 209 0 196 0C183 0 170 0 156.8 0C143.7 0 130.3 0 117.2 0C104 0 91 0 78 0C65 0 52 0 39 0C26 0 13 0 6.5 0L0 0Z" fill="#b1241a"></path><path d="M0 60L6.5 63.8C13 67.7 26 75.3 39 76.3C52 77.3 65 71.7 78 71.8C91 72 104 78 117.2 78.7C130.3 79.3 143.7 74.7 156.8 71.3C170 68 183 66 196 61.3C209 56.7 222 49.3 235 52.3C248 55.3 261 68.7 274 74.3C287 80 300 78 313 78.3C326 78.7 339 81.3 352 77C365 72.7 378 61.3 391 58.2C404 55 417 60 430.2 64.2C443.3 68.3 456.7 71.7 469.8 72.8C483 74 496 73 509 66.5C522 60 535 48 548 46.8C561 45.7 574 55.3 587 63.3C600 71.3 613 77.7 626 77C639 76.3 652 68.7 665 61C678 53.3 691 45.7 704 46C717 46.3 730 54.7 743.2 55.7C756.3 56.7 769.7 50.3 782.8 53.3C796 56.3 809 68.7 822 75.8C835 83 848 85 861 83.8C874 82.7 887 78.3 893.5 76.2L900 74L900 0L893.5 0C887 0 874 0 861 0C848 0 835 0 822 0C809 0 796 0 782.8 0C769.7 0 756.3 0 743.2 0C730 0 717 0 704 0C691 0 678 0 665 0C652 0 639 0 626 0C613 0 600 0 587 0C574 0 561 0 548 0C535 0 522 0 509 0C496 0 483 0 469.8 0C456.7 0 443.3 0 430.2 0C417 0 404 0 391 0C378 0 365 0 352 0C339 0 326 0 313 0C300 0 287 0 274 0C261 0 248 0 235 0C222 0 209 0 196 0C183 0 170 0 156.8 0C143.7 0 130.3 0 117.2 0C104 0 91 0 78 0C65 0 52 0 39 0C26 0 13 0 6.5 0L0 0Z" fill="#c03f19"></path><path d="M0 60L6.5 57.2C13 54.3 26 48.7 39 47.8C52 47 65 51 78 49.7C91 48.3 104 41.7 117.2 41.3C130.3 41 143.7 47 156.8 49.8C170 52.7 183 52.3 196 55.5C209 58.7 222 65.3 235 68.2C248 71 261 70 274 68C287 66 300 63 313 59.8C326 56.7 339 53.3 352 48.3C365 43.3 378 36.7 391 33.3C404 30 417 30 430.2 35C443.3 40 456.7 50 469.8 56.8C483 63.7 496 67.3 509 68.5C522 69.7 535 68.3 548 65.5C561 62.7 574 58.3 587 55.3C600 52.3 613 50.7 626 48.2C639 45.7 652 42.3 665 39.8C678 37.3 691 35.7 704 37C717 38.3 730 42.7 743.2 44.8C756.3 47 769.7 47 782.8 50.7C796 54.3 809 61.7 822 60.8C835 60 848 51 861 44.2C874 37.3 887 32.7 893.5 30.3L900 28L900 0L893.5 0C887 0 874 0 861 0C848 0 835 0 822 0C809 0 796 0 782.8 0C769.7 0 756.3 0 743.2 0C730 0 717 0 704 0C691 0 678 0 665 0C652 0 639 0 626 0C613 0 600 0 587 0C574 0 561 0 548 0C535 0 522 0 509 0C496 0 483 0 469.8 0C456.7 0 443.3 0 430.2 0C417 0 404 0 391 0C378 0 365 0 352 0C339 0 326 0 313 0C300 0 287 0 274 0C261 0 248 0 235 0C222 0 209 0 196 0C183 0 170 0 156.8 0C143.7 0 130.3 0 117.2 0C104 0 91 0 78 0C65 0 52 0 39 0C26 0 13 0 6.5 0L0 0Z" fill="#cd5718"></path><path d="M0 55L6.5 54.5C13 54 26 53 39 53.3C52 53.7 65 55.3 78 54.3C91 53.3 104 49.7 117.2 43.8C130.3 38 143.7 30 156.8 26.3C170 22.7 183 23.3 196 29.7C209 36 222 48 235 48.3C248 48.7 261 37.3 274 35.8C287 34.3 300 42.7 313 42.5C326 42.3 339 33.7 352 29.3C365 25 378 25 391 25.8C404 26.7 417 28.3 430.2 31.8C443.3 35.3 456.7 40.7 469.8 44C483 47.3 496 48.7 509 47.7C522 46.7 535 43.3 548 42.5C561 41.7 574 43.3 587 47.3C600 51.3 613 57.7 626 55.5C639 53.3 652 42.7 665 41.5C678 40.3 691 48.7 704 52.5C717 56.3 730 55.7 743.2 52.3C756.3 49 769.7 43 782.8 40C796 37 809 37 822 39.3C835 41.7 848 46.3 861 45C874 43.7 887 36.3 893.5 32.7L900 29L900 0L893.5 0C887 0 874 0 861 0C848 0 835 0 822 0C809 0 796 0 782.8 0C769.7 0 756.3 0 743.2 0C730 0 717 0 704 0C691 0 678 0 665 0C652 0 639 0 626 0C613 0 600 0 587 0C574 0 561 0 548 0C535 0 522 0 509 0C496 0 483 0 469.8 0C456.7 0 443.3 0 430.2 0C417 0 404 0 391 0C378 0 365 0 352 0C339 0 326 0 313 0C300 0 287 0 274 0C261 0 248 0 235 0C222 0 209 0 196 0C183 0 170 0 156.8 0C143.7 0 130.3 0 117.2 0C104 0 91 0 78 0C65 0 52 0 39 0C26 0 13 0 6.5 0L0 0Z" fill="#d96f18"></path><path d="M0 19L6.5 23.5C13 28 26 37 39 40.7C52 44.3 65 42.7 78 43.5C91 44.3 104 47.7 117.2 47.8C130.3 48 143.7 45 156.8 39.2C170 33.3 183 24.7 196 26.7C209 28.7 222 41.3 235 43.2C248 45 261 36 274 34.3C287 32.7 300 38.3 313 42.5C326 46.7 339 49.3 352 49.2C365 49 378 46 391 46.3C404 46.7 417 50.3 430.2 47.2C443.3 44 456.7 34 469.8 33.5C483 33 496 42 509 41.7C522 41.3 535 31.7 548 28.5C561 25.3 574 28.7 587 30.3C600 32 613 32 626 35C639 38 652 44 665 42.5C678 41 691 32 704 32.5C717 33 730 43 743.2 44.8C756.3 46.7 769.7 40.3 782.8 34.5C796 28.7 809 23.3 822 23.8C835 24.3 848 30.7 861 32.8C874 35 887 33 893.5 32L900 31L900 0L893.5 0C887 0 874 0 861 0C848 0 835 0 822 0C809 0 796 0 782.8 0C769.7 0 756.3 0 743.2 0C730 0 717 0 704 0C691 0 678 0 665 0C652 0 639 0 626 0C613 0 600 0 587 0C574 0 561 0 548 0C535 0 522 0 509 0C496 0 483 0 469.8 0C456.7 0 443.3 0 430.2 0C417 0 404 0 391 0C378 0 365 0 352 0C339 0 326 0 313 0C300 0 287 0 274 0C261 0 248 0 235 0C222 0 209 0 196 0C183 0 170 0 156.8 0C143.7 0 130.3 0 117.2 0C104 0 91 0 78 0C65 0 52 0 39 0C26 0 13 0 6.5 0L0 0Z" fill="#e3851b"></path><path d="M0 19L6.5 20.7C13 22.3 26 25.7 39 26.5C52 27.3 65 25.7 78 22.8C91 20 104 16 117.2 15.3C130.3 14.7 143.7 17.3 156.8 21.3C170 25.3 183 30.7 196 30.5C209 30.3 222 24.7 235 20.5C248 16.3 261 13.7 274 15.8C287 18 300 25 313 28.2C326 31.3 339 30.7 352 29.7C365 28.7 378 27.3 391 27.5C404 27.7 417 29.3 430.2 32.2C443.3 35 456.7 39 469.8 38.5C483 38 496 33 509 32.5C522 32 535 36 548 37C561 38 574 36 587 31.3C600 26.7 613 19.3 626 20.3C639 21.3 652 30.7 665 35.3C678 40 691 40 704 39.3C717 38.7 730 37.3 743.2 37C756.3 36.7 769.7 37.3 782.8 36.8C796 36.3 809 34.7 822 31.7C835 28.7 848 24.3 861 22.3C874 20.3 887 20.7 893.5 20.8L900 21L900 0L893.5 0C887 0 874 0 861 0C848 0 835 0 822 0C809 0 796 0 782.8 0C769.7 0 756.3 0 743.2 0C730 0 717 0 704 0C691 0 678 0 665 0C652 0 639 0 626 0C613 0 600 0 587 0C574 0 561 0 548 0C535 0 522 0 509 0C496 0 483 0 469.8 0C456.7 0 443.3 0 430.2 0C417 0 404 0 391 0C378 0 365 0 352 0C339 0 326 0 313 0C300 0 287 0 274 0C261 0 248 0 235 0C222 0 209 0 196 0C183 0 170 0 156.8 0C143.7 0 130.3 0 117.2 0C104 0 91 0 78 0C65 0 52 0 39 0C26 0 13 0 6.5 0L0 0Z" fill="#ec9c21"></path><path d="M0 12L6.5 13.8C13 15.7 26 19.3 39 21.5C52 23.7 65 24.3 78 22.2C91 20 104 15 117.2 12.7C130.3 10.3 143.7 10.7 156.8 11.5C170 12.3 183 13.7 196 14C209 14.3 222 13.7 235 13.3C248 13 261 13 274 14.3C287 15.7 300 18.3 313 19C326 19.7 339 18.3 352 19.7C365 21 378 25 391 24.2C404 23.3 417 17.7 430.2 17C443.3 16.3 456.7 20.7 469.8 22.2C483 23.7 496 22.3 509 21C522 19.7 535 18.3 548 18.5C561 18.7 574 20.3 587 20.7C600 21 613 20 626 18.2C639 16.3 652 13.7 665 12.8C678 12 691 13 704 15.8C717 18.7 730 23.3 743.2 25.3C756.3 27.3 769.7 26.7 782.8 27C796 27.3 809 28.7 822 29.5C835 30.3 848 30.7 861 26.7C874 22.7 887 14.3 893.5 10.2L900 6L900 0L893.5 0C887 0 874 0 861 0C848 0 835 0 822 0C809 0 796 0 782.8 0C769.7 0 756.3 0 743.2 0C730 0 717 0 704 0C691 0 678 0 665 0C652 0 639 0 626 0C613 0 600 0 587 0C574 0 561 0 548 0C535 0 522 0 509 0C496 0 483 0 469.8 0C456.7 0 443.3 0 430.2 0C417 0 404 0 391 0C378 0 365 0 352 0C339 0 326 0 313 0C300 0 287 0 274 0C261 0 248 0 235 0C222 0 209 0 196 0C183 0 170 0 156.8 0C143.7 0 130.3 0 117.2 0C104 0 91 0 78 0C65 0 52 0 39 0C26 0 13 0 6.5 0L0 0Z" fill="#f4b32b"></path><path d="M0 3L6.5 2.7C13 2.3 26 1.7 39 2.7C52 3.7 65 6.3 78 6.2C91 6 104 3 117.2 3.5C130.3 4 143.7 8 156.8 8.2C170 8.3 183 4.7 196 4.2C209 3.7 222 6.3 235 8.3C248 10.3 261 11.7 274 10.7C287 9.7 300 6.3 313 5.8C326 5.3 339 7.7 352 9.8C365 12 378 14 391 15.8C404 17.7 417 19.3 430.2 16.8C443.3 14.3 456.7 7.7 469.8 4.8C483 2 496 3 509 3.8C522 4.7 535 5.3 548 6.3C561 7.3 574 8.7 587 11.2C600 13.7 613 17.3 626 16C639 14.7 652 8.3 665 7.7C678 7 691 12 704 14.2C717 16.3 730 15.7 743.2 13.5C756.3 11.3 769.7 7.7 782.8 5.5C796 3.3 809 2.7 822 2C835 1.3 848 0.7 861 2.7C874 4.7 887 9.3 893.5 11.7L900 14L900 0L893.5 0C887 0 874 0 861 0C848 0 835 0 822 0C809 0 796 0 782.8 0C769.7 0 756.3 0 743.2 0C730 0 717 0 704 0C691 0 678 0 665 0C652 0 639 0 626 0C613 0 600 0 587 0C574 0 561 0 548 0C535 0 522 0 509 0C496 0 483 0 469.8 0C456.7 0 443.3 0 430.2 0C417 0 404 0 391 0C378 0 365 0 352 0C339 0 326 0 313 0C300 0 287 0 274 0C261 0 248 0 235 0C222 0 209 0 196 0C183 0 170 0 156.8 0C143.7 0 130.3 0 117.2 0C104 0 91 0 78 0C65 0 52 0 39 0C26 0 13 0 6.5 0L0 0Z" fill="#faca38"></path></svg>