<svg id="visual" viewBox="0 0 900 100" width="900" height="100" xmlns="http://www.w3.org/2000/svg" xmlns:xlink="http://www.w3.org/1999/xlink" version="1.1"><rect x="0" y="0" width="900" height="100" fill="#131313"></rect><path d="M0 25L6.5 25.7C13 26.3 26 27.7 39 27.8C52 28 65 27 78 30.7C91 34.3 104 42.7 117.2 46.7C130.3 50.7 143.7 50.3 156.8 42.7C170 35 183 20 196 18.5C209 17 222 29 235 31.2C248 33.3 261 25.7 274 24.8C287 24 300 30 313 30.2C326 30.3 339 24.7 352 28.3C365 32 378 45 391 51.8C404 58.7 417 59.3 430.2 57C443.3 54.7 456.7 49.3 469.8 43.8C483 38.3 496 32.7 509 31.3C522 30 535 33 548 30C561 27 574 18 587 16C600 14 613 19 626 19.3C639 19.7 652 15.3 665 12.7C678 10 691 9 704 10.2C717 11.3 730 14.7 743.2 14.5C756.3 14.3 769.7 10.7 782.8 15.8C796 21 809 35 822 42.5C835 50 848 51 861 52C874 53 887 54 893.5 54.5L900 55L900 101L893.5 101C887 101 874 101 861 101C848 101 835 101 822 101C809 101 796 101 782.8 101C769.7 101 756.3 101 743.2 101C730 101 717 101 704 101C691 101 678 101 665 101C652 101 639 101 626 101C613 101 600 101 587 101C574 101 561 101 548 101C535 101 522 101 509 101C496 101 483 101 469.8 101C456.7 101 443.3 101 430.2 101C417 101 404 101 391 101C378 101 365 101 352 101C339 101 326 101 313 101C300 101 287 101 274 101C261 101 248 101 235 101C222 101 209 101 196 101C183 101 170 101 156.8 101C143.7 101 130.3 101 117.2 101C104 101 91 101 78 101C65 101 52 101 39 101C26 101 13 101 6.5 101L0 101Z" fill="#b1241a"></path><path d="M0 38L6.5 34.2C13 30.3 26 22.7 39 21.7C52 20.7 65 26.3 78 26.2C91 26 104 20 117.2 19.3C130.3 18.7 143.7 23.3 156.8 26.7C170 30 183 32 196 36.7C209 41.3 222 48.7 235 45.7C248 42.7 261 29.3 274 23.7C287 18 300 20 313 19.7C326 19.3 339 16.7 352 21C365 25.3 378 36.7 391 39.8C404 43 417 38 430.2 33.8C443.3 29.7 456.7 26.3 469.8 25.2C483 24 496 25 509 31.5C522 38 535 50 548 51.2C561 52.3 574 42.7 587 34.7C600 26.7 613 20.3 626 21C639 21.7 652 29.3 665 37C678 44.7 691 52.3 704 52C717 51.7 730 43.3 743.2 42.3C756.3 41.3 769.7 47.7 782.8 44.7C796 41.7 809 29.3 822 22.2C835 15 848 13 861 14.2C874 15.3 887 19.7 893.5 21.8L900 24L900 101L893.5 101C887 101 874 101 861 101C848 101 835 101 822 101C809 101 796 101 782.8 101C769.7 101 756.3 101 743.2 101C730 101 717 101 704 101C691 101 678 101 665 101C652 101 639 101 626 101C613 101 600 101 587 101C574 101 561 101 548 101C535 101 522 101 509 101C496 101 483 101 469.8 101C456.7 101 443.3 101 430.2 101C417 101 404 101 391 101C378 101 365 101 352 101C339 101 326 101 313 101C300 101 287 101 274 101C261 101 248 101 235 101C222 101 209 101 196 101C183 101 170 101 156.8 101C143.7 101 130.3 101 117.2 101C104 101 91 101 78 101C65 101 52 101 39 101C26 101 13 101 6.5 101L0 101Z" fill="#c03f19"></path><path d="M0 38L6.5 40.8C13 43.7 26 49.3 39 50.2C52 51 65 47 78 48.3C91 49.7 104 56.3 117.2 56.7C130.3 57 143.7 51 156.8 48.2C170 45.3 183 45.7 196 42.5C209 39.3 222 32.7 235 29.8C248 27 261 28 274 30C287 32 300 35 313 38.2C326 41.3 339 44.7 352 49.7C365 54.7 378 61.3 391 64.7C404 68 417 68 430.2 63C443.3 58 456.7 48 469.8 41.2C483 34.3 496 30.7 509 29.5C522 28.3 535 29.7 548 32.5C561 35.3 574 39.7 587 42.7C600 45.7 613 47.3 626 49.8C639 52.3 652 55.7 665 58.2C678 60.7 691 62.3 704 61C717 59.7 730 55.3 743.2 53.2C756.3 51 769.7 51 782.8 47.3C796 43.7 809 36.3 822 37.2C835 38 848 47 861 53.8C874 60.7 887 65.3 893.5 67.7L900 70L900 101L893.5 101C887 101 874 101 861 101C848 101 835 101 822 101C809 101 796 101 782.8 101C769.7 101 756.3 101 743.2 101C730 101 717 101 704 101C691 101 678 101 665 101C652 101 639 101 626 101C613 101 600 101 587 101C574 101 561 101 548 101C535 101 522 101 509 101C496 101 483 101 469.8 101C456.7 101 443.3 101 430.2 101C417 101 404 101 391 101C378 101 365 101 352 101C339 101 326 101 313 101C300 101 287 101 274 101C261 101 248 101 235 101C222 101 209 101 196 101C183 101 170 101 156.8 101C143.7 101 130.3 101 117.2 101C104 101 91 101 78 101C65 101 52 101 39 101C26 101 13 101 6.5 101L0 101Z" fill="#cd5718"></path><path d="M0 43L6.5 43.5C13 44 26 45 39 44.7C52 44.3 65 42.7 78 43.7C91 44.7 104 48.3 117.2 54.2C130.3 60 143.7 68 156.8 71.7C170 75.3 183 74.7 196 68.3C209 62 222 50 235 49.7C248 49.3 261 60.7 274 62.2C287 63.7 300 55.3 313 55.5C326 55.7 339 64.3 352 68.7C365 73 378 73 391 72.2C404 71.3 417 69.7 430.2 66.2C443.3 62.7 456.7 57.3 469.8 54C483 50.7 496 49.3 509 50.3C522 51.3 535 54.7 548 55.5C561 56.3 574 54.7 587 50.7C600 46.7 613 40.3 626 42.5C639 44.7 652 55.3 665 56.5C678 57.7 691 49.3 704 45.5C717 41.7 730 42.3 743.2 45.7C756.3 49 769.7 55 782.8 58C796 61 809 61 822 58.7C835 56.3 848 51.7 861 53C874 54.3 887 61.7 893.5 65.3L900 69L900 101L893.5 101C887 101 874 101 861 101C848 101 835 101 822 101C809 101 796 101 782.8 101C769.7 101 756.3 101 743.2 101C730 101 717 101 704 101C691 101 678 101 665 101C652 101 639 101 626 101C613 101 600 101 587 101C574 101 561 101 548 101C535 101 522 101 509 101C496 101 483 101 469.8 101C456.7 101 443.3 101 430.2 101C417 101 404 101 391 101C378 101 365 101 352 101C339 101 326 101 313 101C300 101 287 101 274 101C261 101 248 101 235 101C222 101 209 101 196 101C183 101 170 101 156.8 101C143.7 101 130.3 101 117.2 101C104 101 91 101 78 101C65 101 52 101 39 101C26 101 13 101 6.5 101L0 101Z" fill="#d96f18"></path><path d="M0 79L6.5 74.5C13 70 26 61 39 57.3C52 53.7 65 55.3 78 54.5C91 53.7 104 50.3 117.2 50.2C130.3 50 143.7 53 156.8 58.8C170 64.7 183 73.3 196 71.3C209 69.3 222 56.7 235 54.8C248 53 261 62 274 63.7C287 65.3 300 59.7 313 55.5C326 51.3 339 48.7 352 48.8C365 49 378 52 391 51.7C404 51.3 417 47.7 430.2 50.8C443.3 54 456.7 64 469.8 64.5C483 65 496 56 509 56.3C522 56.7 535 66.3 548 69.5C561 72.7 574 69.3 587 67.7C600 66 613 66 626 63C639 60 652 54 665 55.5C678 57 691 66 704 65.5C717 65 730 55 743.2 53.2C756.3 51.3 769.7 57.7 782.8 63.5C796 69.3 809 74.7 822 74.2C835 73.7 848 67.3 861 65.2C874 63 887 65 893.5 66L900 67L900 101L893.5 101C887 101 874 101 861 101C848 101 835 101 822 101C809 101 796 101 782.8 101C769.7 101 756.3 101 743.2 101C730 101 717 101 704 101C691 101 678 101 665 101C652 101 639 101 626 101C613 101 600 101 587 101C574 101 561 101 548 101C535 101 522 101 509 101C496 101 483 101 469.8 101C456.7 101 443.3 101 430.2 101C417 101 404 101 391 101C378 101 365 101 352 101C339 101 326 101 313 101C300 101 287 101 274 101C261 101 248 101 235 101C222 101 209 101 196 101C183 101 170 101 156.8 101C143.7 101 130.3 101 117.2 101C104 101 91 101 78 101C65 101 52 101 39 101C26 101 13 101 6.5 101L0 101Z" fill="#e3851b"></path><path d="M0 79L6.5 77.3C13 75.7 26 72.3 39 71.5C52 70.7 65 72.3 78 75.2C91 78 104 82 117.2 82.7C130.3 83.3 143.7 80.7 156.8 76.7C170 72.7 183 67.3 196 67.5C209 67.7 222 73.3 235 77.5C248 81.7 261 84.3 274 82.2C287 80 300 73 313 69.8C326 66.7 339 67.3 352 68.3C365 69.3 378 70.7 391 70.5C404 70.3 417 68.7 430.2 65.8C443.3 63 456.7 59 469.8 59.5C483 60 496 65 509 65.5C522 66 535 62 548 61C561 60 574 62 587 66.7C600 71.3 613 78.7 626 77.7C639 76.7 652 67.3 665 62.7C678 58 691 58 704 58.7C717 59.3 730 60.7 743.2 61C756.3 61.3 769.7 60.7 782.8 61.2C796 61.7 809 63.3 822 66.3C835 69.3 848 73.7 861 75.7C874 77.7 887 77.3 893.5 77.2L900 77L900 101L893.5 101C887 101 874 101 861 101C848 101 835 101 822 101C809 101 796 101 782.8 101C769.7 101 756.3 101 743.2 101C730 101 717 101 704 101C691 101 678 101 665 101C652 101 639 101 626 101C613 101 600 101 587 101C574 101 561 101 548 101C535 101 522 101 509 101C496 101 483 101 469.8 101C456.7 101 443.3 101 430.2 101C417 101 404 101 391 101C378 101 365 101 352 101C339 101 326 101 313 101C300 101 287 101 274 101C261 101 248 101 235 101C222 101 209 101 196 101C183 101 170 101 156.8 101C143.7 101 130.3 101 117.2 101C104 101 91 101 78 101C65 101 52 101 39 101C26 101 13 101 6.5 101L0 101Z" fill="#ec9c21"></path><path d="M0 86L6.5 84.2C13 82.3 26 78.7 39 76.5C52 74.3 65 73.7 78 75.8C91 78 104 83 117.2 85.3C130.3 87.7 143.7 87.3 156.8 86.5C170 85.7 183 84.3 196 84C209 83.7 222 84.3 235 84.7C248 85 261 85 274 83.7C287 82.3 300 79.7 313 79C326 78.3 339 79.7 352 78.3C365 77 378 73 391 73.8C404 74.7 417 80.3 430.2 81C443.3 81.7 456.7 77.3 469.8 75.8C483 74.3 496 75.7 509 77C522 78.3 535 79.7 548 79.5C561 79.3 574 77.7 587 77.3C600 77 613 78 626 79.8C639 81.7 652 84.3 665 85.2C678 86 691 85 704 82.2C717 79.3 730 74.7 743.2 72.7C756.3 70.7 769.7 71.3 782.8 71C796 70.7 809 69.3 822 68.5C835 67.7 848 67.3 861 71.3C874 75.3 887 83.7 893.5 87.8L900 92L900 101L893.5 101C887 101 874 101 861 101C848 101 835 101 822 101C809 101 796 101 782.8 101C769.7 101 756.3 101 743.2 101C730 101 717 101 704 101C691 101 678 101 665 101C652 101 639 101 626 101C613 101 600 101 587 101C574 101 561 101 548 101C535 101 522 101 509 101C496 101 483 101 469.8 101C456.7 101 443.3 101 430.2 101C417 101 404 101 391 101C378 101 365 101 352 101C339 101 326 101 313 101C300 101 287 101 274 101C261 101 248 101 235 101C222 101 209 101 196 101C183 101 170 101 156.8 101C143.7 101 130.3 101 117.2 101C104 101 91 101 78 101C65 101 52 101 39 101C26 101 13 101 6.5 101L0 101Z" fill="#f4b32b"></path><path d="M0 95L6.5 95.3C13 95.7 26 96.3 39 95.3C52 94.3 65 91.7 78 92C91 92.3 104 95.7 117.2 95.2C130.3 94.7 143.7 90.3 156.8 90C170 89.7 183 93.3 196 93.8C209 94.3 222 91.7 235 89.7C248 87.7 261 86.3 274 87.3C287 88.3 300 91.7 313 92.2C326 92.7 339 90.3 352 88.2C365 86 378 84 391 82.2C404 80.3 417 78.7 430.2 81.2C443.3 83.7 456.7 90.3 469.8 93.2C483 96 496 95 509 94.2C522 93.3 535 92.7 548 91.7C561 90.7 574 89.3 587 86.8C600 84.3 613 80.7 626 82C639 83.3 652 89.7 665 90.3C678 91 691 86 704 83.8C717 81.7 730 82.3 743.2 84.5C756.3 86.7 769.7 90.3 782.8 92.5C796 94.7 809 95.3 822 96C835 96.7 848 97.3 861 95.3C874 93.3 887 88.7 893.5 86.3L900 84L900 101L893.5 101C887 101 874 101 861 101C848 101 835 101 822 101C809 101 796 101 782.8 101C769.7 101 756.3 101 743.2 101C730 101 717 101 704 101C691 101 678 101 665 101C652 101 639 101 626 101C613 101 600 101 587 101C574 101 561 101 548 101C535 101 522 101 509 101C496 101 483 101 469.8 101C456.7 101 443.3 101 430.2 101C417 101 404 101 391 101C378 101 365 101 352 101C339 101 326 101 313 101C300 101 287 101 274 101C261 101 248 101 235 101C222 101 209 101 196 101C183 101 170 101 156.8 101C143.7 101 130.3 101 117.2 101C104 101 91 101 78 101C65 101 52 101 39 101C26 101 13 101 6.5 101L0 101Z" fill="#faca38"></path></svg>