<svg id="visual" viewBox="0 0 900 100" width="900" height="100" xmlns="http://www.w3.org/2000/svg" xmlns:xlink="http://www.w3.org/1999/xlink" version="1.1"><rect x="0" y="0" width="900" height="100" fill="#f8f3ef"></rect><path d="M0 37L6.8 35.5C13.7 34 27.3 31 41 29.2C54.7 27.3 68.3 26.7 82 28.3C95.7 30 109.3 34 123 31.8C136.7 29.7 150.3 21.3 164 20.3C177.7 19.3 191.3 25.7 204.8 26.3C218.3 27 231.7 22 245.2 18.7C258.7 15.3 272.3 13.7 286 18.5C299.7 23.3 313.3 34.7 327 36C340.7 37.3 354.3 28.7 368 27.3C381.7 26 395.3 32 409 33.2C422.7 34.3 436.3 30.7 450 29.8C463.7 29 477.3 31 491 33C504.7 35 518.3 37 532 36C545.7 35 559.3 31 573 32.2C586.7 33.3 600.3 39.7 614 39.2C627.7 38.7 641.3 31.3 654.8 30.3C668.3 29.3 681.7 34.7 695.2 37.8C708.7 41 722.3 42 736 37.5C749.7 33 763.3 23 777 18.7C790.7 14.3 804.3 15.7 818 21.7C831.7 27.7 845.3 38.3 859 42.7C872.7 47 886.3 45 893.2 44L900 43L900 101L893.2 101C886.3 101 872.7 101 859 101C845.3 101 831.7 101 818 101C804.3 101 790.7 101 777 101C763.3 101 749.7 101 736 101C722.3 101 708.7 101 695.2 101C681.7 101 668.3 101 654.8 101C641.3 101 627.7 101 614 101C600.3 101 586.7 101 573 101C559.3 101 545.7 101 532 101C518.3 101 504.7 101 491 101C477.3 101 463.7 101 450 101C436.3 101 422.7 101 409 101C395.3 101 381.7 101 368 101C354.3 101 340.7 101 327 101C313.3 101 299.7 101 286 101C272.3 101 258.7 101 245.2 101C231.7 101 218.3 101 204.8 101C191.3 101 177.7 101 164 101C150.3 101 136.7 101 123 101C109.3 101 95.7 101 82 101C68.3 101 54.7 101 41 101C27.3 101 13.7 101 6.8 101L0 101Z" fill="#12de71"></path><path d="M0 34L6.8 34.8C13.7 35.7 27.3 37.3 41 36.5C54.7 35.7 68.3 32.3 82 33.7C95.7 35 109.3 41 123 39.5C136.7 38 150.3 29 164 25.5C177.7 22 191.3 24 204.8 27.7C218.3 31.3 231.7 36.7 245.2 39C258.7 41.3 272.3 40.7 286 40.8C299.7 41 313.3 42 327 40.3C340.7 38.7 354.3 34.3 368 33.5C381.7 32.7 395.3 35.3 409 37.8C422.7 40.3 436.3 42.7 450 40.5C463.7 38.3 477.3 31.7 491 29.8C504.7 28 518.3 31 532 34.5C545.7 38 559.3 42 573 40.8C586.7 39.7 600.3 33.3 614 33.7C627.7 34 641.3 41 654.8 43.3C668.3 45.7 681.7 43.3 695.2 44C708.7 44.7 722.3 48.3 736 47.3C749.7 46.3 763.3 40.7 777 36C790.7 31.3 804.3 27.7 818 25.3C831.7 23 845.3 22 859 24.7C872.7 27.3 886.3 33.7 893.2 36.8L900 40L900 101L893.2 101C886.3 101 872.7 101 859 101C845.3 101 831.7 101 818 101C804.3 101 790.7 101 777 101C763.3 101 749.7 101 736 101C722.3 101 708.7 101 695.2 101C681.7 101 668.3 101 654.8 101C641.3 101 627.7 101 614 101C600.3 101 586.7 101 573 101C559.3 101 545.7 101 532 101C518.3 101 504.7 101 491 101C477.3 101 463.7 101 450 101C436.3 101 422.7 101 409 101C395.3 101 381.7 101 368 101C354.3 101 340.7 101 327 101C313.3 101 299.7 101 286 101C272.3 101 258.7 101 245.2 101C231.7 101 218.3 101 204.8 101C191.3 101 177.7 101 164 101C150.3 101 136.7 101 123 101C109.3 101 95.7 101 82 101C68.3 101 54.7 101 41 101C27.3 101 13.7 101 6.8 101L0 101Z" fill="#00c778"></path><path d="M0 40L6.8 42C13.7 44 27.3 48 41 51.3C54.7 54.7 68.3 57.3 82 59.3C95.7 61.3 109.3 62.7 123 60.3C136.7 58 150.3 52 164 48.7C177.7 45.3 191.3 44.7 204.8 42.8C218.3 41 231.7 38 245.2 38.7C258.7 39.3 272.3 43.7 286 44.3C299.7 45 313.3 42 327 39.2C340.7 36.3 354.3 33.7 368 34C381.7 34.3 395.3 37.7 409 38C422.7 38.3 436.3 35.7 450 35C463.7 34.3 477.3 35.7 491 39.3C504.7 43 518.3 49 532 53.3C545.7 57.7 559.3 60.3 573 58.7C586.7 57 600.3 51 614 47.3C627.7 43.7 641.3 42.3 654.8 42C668.3 41.7 681.7 42.3 695.2 41.8C708.7 41.3 722.3 39.7 736 39.7C749.7 39.7 763.3 41.3 777 42.5C790.7 43.7 804.3 44.3 818 45.5C831.7 46.7 845.3 48.3 859 51.2C872.7 54 886.3 58 893.2 60L900 62L900 101L893.2 101C886.3 101 872.7 101 859 101C845.3 101 831.7 101 818 101C804.3 101 790.7 101 777 101C763.3 101 749.7 101 736 101C722.3 101 708.7 101 695.2 101C681.7 101 668.3 101 654.8 101C641.3 101 627.7 101 614 101C600.3 101 586.7 101 573 101C559.3 101 545.7 101 532 101C518.3 101 504.7 101 491 101C477.3 101 463.7 101 450 101C436.3 101 422.7 101 409 101C395.3 101 381.7 101 368 101C354.3 101 340.7 101 327 101C313.3 101 299.7 101 286 101C272.3 101 258.7 101 245.2 101C231.7 101 218.3 101 204.8 101C191.3 101 177.7 101 164 101C150.3 101 136.7 101 123 101C109.3 101 95.7 101 82 101C68.3 101 54.7 101 41 101C27.3 101 13.7 101 6.8 101L0 101Z" fill="#00b07a"></path><path d="M0 63L6.8 62.3C13.7 61.7 27.3 60.3 41 59.8C54.7 59.3 68.3 59.7 82 59.3C95.7 59 109.3 58 123 55.8C136.7 53.7 150.3 50.3 164 52C177.7 53.7 191.3 60.3 204.8 63.7C218.3 67 231.7 67 245.2 64.3C258.7 61.7 272.3 56.3 286 52.2C299.7 48 313.3 45 327 45.3C340.7 45.7 354.3 49.3 368 52.3C381.7 55.3 395.3 57.7 409 56C422.7 54.3 436.3 48.7 450 49.5C463.7 50.3 477.3 57.7 491 57.7C504.7 57.7 518.3 50.3 532 48.7C545.7 47 559.3 51 573 50.8C586.7 50.7 600.3 46.3 614 45C627.7 43.7 641.3 45.3 654.8 45.8C668.3 46.3 681.7 45.7 695.2 46C708.7 46.3 722.3 47.7 736 47.8C749.7 48 763.3 47 777 47.2C790.7 47.3 804.3 48.7 818 50.7C831.7 52.7 845.3 55.3 859 55.7C872.7 56 886.3 54 893.2 53L900 52L900 101L893.2 101C886.3 101 872.7 101 859 101C845.3 101 831.7 101 818 101C804.3 101 790.7 101 777 101C763.3 101 749.7 101 736 101C722.3 101 708.7 101 695.2 101C681.7 101 668.3 101 654.8 101C641.3 101 627.7 101 614 101C600.3 101 586.7 101 573 101C559.3 101 545.7 101 532 101C518.3 101 504.7 101 491 101C477.3 101 463.7 101 450 101C436.3 101 422.7 101 409 101C395.3 101 381.7 101 368 101C354.3 101 340.7 101 327 101C313.3 101 299.7 101 286 101C272.3 101 258.7 101 245.2 101C231.7 101 218.3 101 204.8 101C191.3 101 177.7 101 164 101C150.3 101 136.7 101 123 101C109.3 101 95.7 101 82 101C68.3 101 54.7 101 41 101C27.3 101 13.7 101 6.8 101L0 101Z" fill="#009976"></path><path d="M0 50L6.8 51C13.7 52 27.3 54 41 57.7C54.7 61.3 68.3 66.7 82 69.5C95.7 72.3 109.3 72.7 123 71.8C136.7 71 150.3 69 164 65.7C177.7 62.3 191.3 57.7 204.8 55C218.3 52.3 231.7 51.7 245.2 55C258.7 58.3 272.3 65.7 286 66.8C299.7 68 313.3 63 327 60.3C340.7 57.7 354.3 57.3 368 56.5C381.7 55.7 395.3 54.3 409 54.8C422.7 55.3 436.3 57.7 450 61C463.7 64.3 477.3 68.7 491 68.7C504.7 68.7 518.3 64.3 532 64.3C545.7 64.3 559.3 68.7 573 67.7C586.7 66.7 600.3 60.3 614 60.8C627.7 61.3 641.3 68.7 654.8 69.3C668.3 70 681.7 64 695.2 61.2C708.7 58.3 722.3 58.7 736 61.7C749.7 64.7 763.3 70.3 777 73C790.7 75.7 804.3 75.3 818 74.8C831.7 74.3 845.3 73.7 859 73.5C872.7 73.3 886.3 73.7 893.2 73.8L900 74L900 101L893.2 101C886.3 101 872.7 101 859 101C845.3 101 831.7 101 818 101C804.3 101 790.7 101 777 101C763.3 101 749.7 101 736 101C722.3 101 708.7 101 695.2 101C681.7 101 668.3 101 654.8 101C641.3 101 627.7 101 614 101C600.3 101 586.7 101 573 101C559.3 101 545.7 101 532 101C518.3 101 504.7 101 491 101C477.3 101 463.7 101 450 101C436.3 101 422.7 101 409 101C395.3 101 381.7 101 368 101C354.3 101 340.7 101 327 101C313.3 101 299.7 101 286 101C272.3 101 258.7 101 245.2 101C231.7 101 218.3 101 204.8 101C191.3 101 177.7 101 164 101C150.3 101 136.7 101 123 101C109.3 101 95.7 101 82 101C68.3 101 54.7 101 41 101C27.3 101 13.7 101 6.8 101L0 101Z" fill="#00826e"></path><path d="M0 69L6.8 70C13.7 71 27.3 73 41 74.3C54.7 75.7 68.3 76.3 82 75.7C95.7 75 109.3 73 123 71.7C136.7 70.3 150.3 69.7 164 69.3C177.7 69 191.3 69 204.8 67.5C218.3 66 231.7 63 245.2 63.7C258.7 64.3 272.3 68.7 286 70.8C299.7 73 313.3 73 327 72.2C340.7 71.3 354.3 69.7 368 71C381.7 72.3 395.3 76.7 409 77.8C422.7 79 436.3 77 450 74.7C463.7 72.3 477.3 69.7 491 67.3C504.7 65 518.3 63 532 64C545.7 65 559.3 69 573 70.3C586.7 71.7 600.3 70.3 614 71.8C627.7 73.3 641.3 77.7 654.8 78C668.3 78.3 681.7 74.7 695.2 71.2C708.7 67.7 722.3 64.3 736 63.7C749.7 63 763.3 65 777 66.2C790.7 67.3 804.3 67.7 818 68.2C831.7 68.7 845.3 69.3 859 70.7C872.7 72 886.3 74 893.2 75L900 76L900 101L893.2 101C886.3 101 872.7 101 859 101C845.3 101 831.7 101 818 101C804.3 101 790.7 101 777 101C763.3 101 749.7 101 736 101C722.3 101 708.7 101 695.2 101C681.7 101 668.3 101 654.8 101C641.3 101 627.7 101 614 101C600.3 101 586.7 101 573 101C559.3 101 545.7 101 532 101C518.3 101 504.7 101 491 101C477.3 101 463.7 101 450 101C436.3 101 422.7 101 409 101C395.3 101 381.7 101 368 101C354.3 101 340.7 101 327 101C313.3 101 299.7 101 286 101C272.3 101 258.7 101 245.2 101C231.7 101 218.3 101 204.8 101C191.3 101 177.7 101 164 101C150.3 101 136.7 101 123 101C109.3 101 95.7 101 82 101C68.3 101 54.7 101 41 101C27.3 101 13.7 101 6.8 101L0 101Z" fill="#006b63"></path><path d="M0 87L6.8 84.3C13.7 81.7 27.3 76.3 41 73.8C54.7 71.3 68.3 71.7 82 73.2C95.7 74.7 109.3 77.3 123 79.3C136.7 81.3 150.3 82.7 164 83.8C177.7 85 191.3 86 204.8 83.8C218.3 81.7 231.7 76.3 245.2 73.8C258.7 71.3 272.3 71.7 286 73.2C299.7 74.7 313.3 77.3 327 78.2C340.7 79 354.3 78 368 79C381.7 80 395.3 83 409 82.5C422.7 82 436.3 78 450 78.5C463.7 79 477.3 84 491 86.5C504.7 89 518.3 89 532 88.3C545.7 87.7 559.3 86.3 573 83.5C586.7 80.7 600.3 76.3 614 74.7C627.7 73 641.3 74 654.8 75C668.3 76 681.7 77 695.2 78C708.7 79 722.3 80 736 80.5C749.7 81 763.3 81 777 80C790.7 79 804.3 77 818 75.3C831.7 73.7 845.3 72.3 859 72C872.7 71.7 886.3 72.3 893.2 72.7L900 73L900 101L893.2 101C886.3 101 872.7 101 859 101C845.3 101 831.7 101 818 101C804.3 101 790.7 101 777 101C763.3 101 749.7 101 736 101C722.3 101 708.7 101 695.2 101C681.7 101 668.3 101 654.8 101C641.3 101 627.7 101 614 101C600.3 101 586.7 101 573 101C559.3 101 545.7 101 532 101C518.3 101 504.7 101 491 101C477.3 101 463.7 101 450 101C436.3 101 422.7 101 409 101C395.3 101 381.7 101 368 101C354.3 101 340.7 101 327 101C313.3 101 299.7 101 286 101C272.3 101 258.7 101 245.2 101C231.7 101 218.3 101 204.8 101C191.3 101 177.7 101 164 101C150.3 101 136.7 101 123 101C109.3 101 95.7 101 82 101C68.3 101 54.7 101 41 101C27.3 101 13.7 101 6.8 101L0 101Z" fill="#005554"></path><path d="M0 93L6.8 92C13.7 91 27.3 89 41 88.8C54.7 88.7 68.3 90.3 82 89.7C95.7 89 109.3 86 123 84.8C136.7 83.7 150.3 84.3 164 84.5C177.7 84.7 191.3 84.3 204.8 85.8C218.3 87.3 231.7 90.7 245.2 90.5C258.7 90.3 272.3 86.7 286 85.3C299.7 84 313.3 85 327 85.2C340.7 85.3 354.3 84.7 368 84.7C381.7 84.7 395.3 85.3 409 87C422.7 88.7 436.3 91.3 450 92.7C463.7 94 477.3 94 491 91.8C504.7 89.7 518.3 85.3 532 85C545.7 84.7 559.3 88.3 573 90.3C586.7 92.3 600.3 92.7 614 93.2C627.7 93.7 641.3 94.3 654.8 94.7C668.3 95 681.7 95 695.2 95C708.7 95 722.3 95 736 94C749.7 93 763.3 91 777 88.7C790.7 86.3 804.3 83.7 818 82.8C831.7 82 845.3 83 859 84.8C872.7 86.7 886.3 89.3 893.2 90.7L900 92L900 101L893.2 101C886.3 101 872.7 101 859 101C845.3 101 831.7 101 818 101C804.3 101 790.7 101 777 101C763.3 101 749.7 101 736 101C722.3 101 708.7 101 695.2 101C681.7 101 668.3 101 654.8 101C641.3 101 627.7 101 614 101C600.3 101 586.7 101 573 101C559.3 101 545.7 101 532 101C518.3 101 504.7 101 491 101C477.3 101 463.7 101 450 101C436.3 101 422.7 101 409 101C395.3 101 381.7 101 368 101C354.3 101 340.7 101 327 101C313.3 101 299.7 101 286 101C272.3 101 258.7 101 245.2 101C231.7 101 218.3 101 204.8 101C191.3 101 177.7 101 164 101C150.3 101 136.7 101 123 101C109.3 101 95.7 101 82 101C68.3 101 54.7 101 41 101C27.3 101 13.7 101 6.8 101L0 101Z" fill="#024043"></path></svg>