<svg id="visual" viewBox="0 0 900 300" width="900" height="300" xmlns="http://www.w3.org/2000/svg" xmlns:xlink="http://www.w3.org/1999/xlink" version="1.1"><rect x="0" y="0" width="900" height="300" fill="#f8f3ef"></rect><path d="M0 196L12.5 198.3C25 200.7 50 205.3 75 203.5C100 201.7 125 193.3 150 189.7C175 186 200 187 225 193.3C250 199.7 275 211.3 300 211.5C325 211.7 350 200.3 375 195C400 189.7 425 190.3 450 191C475 191.7 500 192.3 525 197.3C550 202.3 575 211.7 600 210.5C625 209.3 650 197.7 675 196.2C700 194.7 725 203.3 750 203.7C775 204 800 196 825 195.8C850 195.7 875 203.3 887.5 207.2L900 211L900 301L887.5 301C875 301 850 301 825 301C800 301 775 301 750 301C725 301 700 301 675 301C650 301 625 301 600 301C575 301 550 301 525 301C500 301 475 301 450 301C425 301 400 301 375 301C350 301 325 301 300 301C275 301 250 301 225 301C200 301 175 301 150 301C125 301 100 301 75 301C50 301 25 301 12.5 301L0 301Z" fill="#024043"></path><path d="M0 214L12.5 215C25 216 50 218 75 222.2C100 226.3 125 232.7 150 230C175 227.3 200 215.7 225 211.8C250 208 275 212 300 216.5C325 221 350 226 375 228.5C400 231 425 231 450 227.7C475 224.3 500 217.7 525 215.2C550 212.7 575 214.3 600 219C625 223.7 650 231.3 675 230.5C700 229.7 725 220.3 750 217C775 213.7 800 216.3 825 217.3C850 218.3 875 217.7 887.5 217.3L900 217L900 301L887.5 301C875 301 850 301 825 301C800 301 775 301 750 301C725 301 700 301 675 301C650 301 625 301 600 301C575 301 550 301 525 301C500 301 475 301 450 301C425 301 400 301 375 301C350 301 325 301 300 301C275 301 250 301 225 301C200 301 175 301 150 301C125 301 100 301 75 301C50 301 25 301 12.5 301L0 301Z" fill="#00665f"></path><path d="M0 252L12.5 248.8C25 245.7 50 239.3 75 238C100 236.7 125 240.3 150 243.3C175 246.3 200 248.7 225 246.3C250 244 275 237 300 234C325 231 350 232 375 230.3C400 228.7 425 224.3 450 226.3C475 228.3 500 236.7 525 238.8C550 241 575 237 600 233.2C625 229.3 650 225.7 675 225.8C700 226 725 230 750 229.7C775 229.3 800 224.7 825 228C850 231.3 875 242.7 887.5 248.3L900 254L900 301L887.5 301C875 301 850 301 825 301C800 301 775 301 750 301C725 301 700 301 675 301C650 301 625 301 600 301C575 301 550 301 525 301C500 301 475 301 450 301C425 301 400 301 375 301C350 301 325 301 300 301C275 301 250 301 225 301C200 301 175 301 150 301C125 301 100 301 75 301C50 301 25 301 12.5 301L0 301Z" fill="#008d73"></path><path d="M0 259L12.5 258C25 257 50 255 75 253.3C100 251.7 125 250.3 150 248.5C175 246.7 200 244.3 225 246.3C250 248.3 275 254.7 300 254.3C325 254 350 247 375 246.8C400 246.7 425 253.3 450 256.8C475 260.3 500 260.7 525 262.2C550 263.7 575 266.3 600 265.8C625 265.3 650 261.7 675 256.8C700 252 725 246 750 245C775 244 800 248 825 251.3C850 254.7 875 257.3 887.5 258.7L900 260L900 301L887.5 301C875 301 850 301 825 301C800 301 775 301 750 301C725 301 700 301 675 301C650 301 625 301 600 301C575 301 550 301 525 301C500 301 475 301 450 301C425 301 400 301 375 301C350 301 325 301 300 301C275 301 250 301 225 301C200 301 175 301 150 301C125 301 100 301 75 301C50 301 25 301 12.5 301L0 301Z" fill="#00b67a"></path><path d="M0 274L12.5 272.5C25 271 50 268 75 266.3C100 264.7 125 264.3 150 267C175 269.7 200 275.3 225 277.3C250 279.3 275 277.7 300 275.8C325 274 350 272 375 272.7C400 273.3 425 276.7 450 275.8C475 275 500 270 525 268.5C550 267 575 269 600 272.3C625 275.7 650 280.3 675 280.8C700 281.3 725 277.7 750 274.8C775 272 800 270 825 268.8C850 267.7 875 267.3 887.5 267.2L900 267L900 301L887.5 301C875 301 850 301 825 301C800 301 775 301 750 301C725 301 700 301 675 301C650 301 625 301 600 301C575 301 550 301 525 301C500 301 475 301 450 301C425 301 400 301 375 301C350 301 325 301 300 301C275 301 250 301 225 301C200 301 175 301 150 301C125 301 100 301 75 301C50 301 25 301 12.5 301L0 301Z" fill="#12de71"></path></svg>