<svg id="visual" viewBox="0 0 900 100" width="900" height="100" xmlns="http://www.w3.org/2000/svg" xmlns:xlink="http://www.w3.org/1999/xlink" version="1.1"><rect x="0" y="0" width="900" height="100" fill="#f8f3ef"></rect><path d="M0 84L6.8 78.7C13.7 73.3 27.3 62.7 41 60.8C54.7 59 68.3 66 82 67.2C95.7 68.3 109.3 63.7 123 63.8C136.7 64 150.3 69 164 74C177.7 79 191.3 84 204.8 82.2C218.3 80.3 231.7 71.7 245.2 69.7C258.7 67.7 272.3 72.3 286 75.3C299.7 78.3 313.3 79.7 327 74.7C340.7 69.7 354.3 58.3 368 54.2C381.7 50 395.3 53 409 60C422.7 67 436.3 78 450 77.3C463.7 76.7 477.3 64.3 491 61.2C504.7 58 518.3 64 532 65.8C545.7 67.7 559.3 65.3 573 68.5C586.7 71.7 600.3 80.3 614 83.2C627.7 86 641.3 83 654.8 82.3C668.3 81.7 681.7 83.3 695.2 83.5C708.7 83.7 722.3 82.3 736 78.7C749.7 75 763.3 69 777 69C790.7 69 804.3 75 818 76.7C831.7 78.3 845.3 75.7 859 70.8C872.7 66 886.3 59 893.2 55.5L900 52L900 0L893.2 0C886.3 0 872.7 0 859 0C845.3 0 831.7 0 818 0C804.3 0 790.7 0 777 0C763.3 0 749.7 0 736 0C722.3 0 708.7 0 695.2 0C681.7 0 668.3 0 654.8 0C641.3 0 627.7 0 614 0C600.3 0 586.7 0 573 0C559.3 0 545.7 0 532 0C518.3 0 504.7 0 491 0C477.3 0 463.7 0 450 0C436.3 0 422.7 0 409 0C395.3 0 381.7 0 368 0C354.3 0 340.7 0 327 0C313.3 0 299.7 0 286 0C272.3 0 258.7 0 245.2 0C231.7 0 218.3 0 204.8 0C191.3 0 177.7 0 164 0C150.3 0 136.7 0 123 0C109.3 0 95.7 0 82 0C68.3 0 54.7 0 41 0C27.3 0 13.7 0 6.8 0L0 0Z" fill="#024043"></path><path d="M0 42L6.8 47.5C13.7 53 27.3 64 41 66.7C54.7 69.3 68.3 63.7 82 58.5C95.7 53.3 109.3 48.7 123 50.2C136.7 51.7 150.3 59.3 164 61.3C177.7 63.3 191.3 59.7 204.8 55.7C218.3 51.7 231.7 47.3 245.2 46.3C258.7 45.3 272.3 47.7 286 49.8C299.7 52 313.3 54 327 53.5C340.7 53 354.3 50 368 49.2C381.7 48.3 395.3 49.7 409 53.3C422.7 57 436.3 63 450 67.5C463.7 72 477.3 75 491 71.3C504.7 67.7 518.3 57.3 532 54.5C545.7 51.7 559.3 56.3 573 58.7C586.7 61 600.3 61 614 59.8C627.7 58.7 641.3 56.3 654.8 57C668.3 57.7 681.7 61.3 695.2 64.7C708.7 68 722.3 71 736 67.3C749.7 63.7 763.3 53.3 777 49.7C790.7 46 804.3 49 818 51.3C831.7 53.7 845.3 55.3 859 53.5C872.7 51.7 886.3 46.3 893.2 43.7L900 41L900 0L893.2 0C886.3 0 872.7 0 859 0C845.3 0 831.7 0 818 0C804.3 0 790.7 0 777 0C763.3 0 749.7 0 736 0C722.3 0 708.7 0 695.2 0C681.7 0 668.3 0 654.8 0C641.3 0 627.7 0 614 0C600.3 0 586.7 0 573 0C559.3 0 545.7 0 532 0C518.3 0 504.7 0 491 0C477.3 0 463.7 0 450 0C436.3 0 422.7 0 409 0C395.3 0 381.7 0 368 0C354.3 0 340.7 0 327 0C313.3 0 299.7 0 286 0C272.3 0 258.7 0 245.2 0C231.7 0 218.3 0 204.8 0C191.3 0 177.7 0 164 0C150.3 0 136.7 0 123 0C109.3 0 95.7 0 82 0C68.3 0 54.7 0 41 0C27.3 0 13.7 0 6.8 0L0 0Z" fill="#005554"></path><path d="M0 35L6.8 34.8C13.7 34.7 27.3 34.3 41 37.8C54.7 41.3 68.3 48.7 82 51.7C95.7 54.7 109.3 53.3 123 54C136.7 54.7 150.3 57.3 164 56.2C177.7 55 191.3 50 204.8 48.2C218.3 46.3 231.7 47.7 245.2 49.7C258.7 51.7 272.3 54.3 286 56.3C299.7 58.3 313.3 59.7 327 57C340.7 54.3 354.3 47.7 368 43.7C381.7 39.7 395.3 38.3 409 38.8C422.7 39.3 436.3 41.7 450 43.3C463.7 45 477.3 46 491 49C504.7 52 518.3 57 532 59.7C545.7 62.3 559.3 62.7 573 59.3C586.7 56 600.3 49 614 49.5C627.7 50 641.3 58 654.8 58.3C668.3 58.7 681.7 51.3 695.2 46.3C708.7 41.3 722.3 38.7 736 40.8C749.7 43 763.3 50 777 54C790.7 58 804.3 59 818 56.5C831.7 54 845.3 48 859 44.2C872.7 40.3 886.3 38.7 893.2 37.8L900 37L900 0L893.2 0C886.3 0 872.7 0 859 0C845.3 0 831.7 0 818 0C804.3 0 790.7 0 777 0C763.3 0 749.7 0 736 0C722.3 0 708.7 0 695.2 0C681.7 0 668.3 0 654.8 0C641.3 0 627.7 0 614 0C600.3 0 586.7 0 573 0C559.3 0 545.7 0 532 0C518.3 0 504.7 0 491 0C477.3 0 463.7 0 450 0C436.3 0 422.7 0 409 0C395.3 0 381.7 0 368 0C354.3 0 340.7 0 327 0C313.3 0 299.7 0 286 0C272.3 0 258.7 0 245.2 0C231.7 0 218.3 0 204.8 0C191.3 0 177.7 0 164 0C150.3 0 136.7 0 123 0C109.3 0 95.7 0 82 0C68.3 0 54.7 0 41 0C27.3 0 13.7 0 6.8 0L0 0Z" fill="#006b63"></path><path d="M0 35L6.8 37.5C13.7 40 27.3 45 41 45.5C54.7 46 68.3 42 82 40.7C95.7 39.3 109.3 40.7 123 41C136.7 41.3 150.3 40.7 164 39C177.7 37.3 191.3 34.7 204.8 35.8C218.3 37 231.7 42 245.2 45.5C258.7 49 272.3 51 286 52.3C299.7 53.7 313.3 54.3 327 52.8C340.7 51.3 354.3 47.7 368 44.7C381.7 41.7 395.3 39.3 409 41.7C422.7 44 436.3 51 450 50.5C463.7 50 477.3 42 491 40.3C504.7 38.7 518.3 43.3 532 45.5C545.7 47.7 559.3 47.3 573 47C586.7 46.7 600.3 46.3 614 44.5C627.7 42.7 641.3 39.3 654.8 41C668.3 42.7 681.7 49.3 695.2 49.2C708.7 49 722.3 42 736 41.8C749.7 41.7 763.3 48.3 777 51.7C790.7 55 804.3 55 818 51.7C831.7 48.3 845.3 41.7 859 37.2C872.7 32.7 886.3 30.3 893.2 29.2L900 28L900 0L893.2 0C886.3 0 872.7 0 859 0C845.3 0 831.7 0 818 0C804.3 0 790.7 0 777 0C763.3 0 749.7 0 736 0C722.3 0 708.7 0 695.2 0C681.7 0 668.3 0 654.8 0C641.3 0 627.7 0 614 0C600.3 0 586.7 0 573 0C559.3 0 545.7 0 532 0C518.3 0 504.7 0 491 0C477.3 0 463.7 0 450 0C436.3 0 422.7 0 409 0C395.3 0 381.7 0 368 0C354.3 0 340.7 0 327 0C313.3 0 299.7 0 286 0C272.3 0 258.7 0 245.2 0C231.7 0 218.3 0 204.8 0C191.3 0 177.7 0 164 0C150.3 0 136.7 0 123 0C109.3 0 95.7 0 82 0C68.3 0 54.7 0 41 0C27.3 0 13.7 0 6.8 0L0 0Z" fill="#00826e"></path><path d="M0 42L6.8 39.2C13.7 36.3 27.3 30.7 41 27.7C54.7 24.7 68.3 24.3 82 28.2C95.7 32 109.3 40 123 41.3C136.7 42.7 150.3 37.3 164 36C177.7 34.7 191.3 37.3 204.8 37.2C218.3 37 231.7 34 245.2 32.5C258.7 31 272.3 31 286 32.2C299.7 33.3 313.3 35.7 327 35.2C340.7 34.7 354.3 31.3 368 31C381.7 30.7 395.3 33.3 409 34.5C422.7 35.7 436.3 35.3 450 36.8C463.7 38.3 477.3 41.7 491 40.7C504.7 39.7 518.3 34.3 532 32.3C545.7 30.3 559.3 31.7 573 30.7C586.7 29.7 600.3 26.3 614 26.3C627.7 26.3 641.3 29.7 654.8 31.3C668.3 33 681.7 33 695.2 35C708.7 37 722.3 41 736 40.8C749.7 40.7 763.3 36.3 777 36.3C790.7 36.3 804.3 40.7 818 41.2C831.7 41.7 845.3 38.3 859 37.8C872.7 37.3 886.3 39.7 893.2 40.8L900 42L900 0L893.2 0C886.3 0 872.7 0 859 0C845.3 0 831.7 0 818 0C804.3 0 790.7 0 777 0C763.3 0 749.7 0 736 0C722.3 0 708.7 0 695.2 0C681.7 0 668.3 0 654.8 0C641.3 0 627.7 0 614 0C600.3 0 586.7 0 573 0C559.3 0 545.7 0 532 0C518.3 0 504.7 0 491 0C477.3 0 463.7 0 450 0C436.3 0 422.7 0 409 0C395.3 0 381.7 0 368 0C354.3 0 340.7 0 327 0C313.3 0 299.7 0 286 0C272.3 0 258.7 0 245.2 0C231.7 0 218.3 0 204.8 0C191.3 0 177.7 0 164 0C150.3 0 136.7 0 123 0C109.3 0 95.7 0 82 0C68.3 0 54.7 0 41 0C27.3 0 13.7 0 6.8 0L0 0Z" fill="#009976"></path><path d="M0 25L6.8 23.5C13.7 22 27.3 19 41 19C54.7 19 68.3 22 82 23C95.7 24 109.3 23 123 24.7C136.7 26.3 150.3 30.7 164 33C177.7 35.3 191.3 35.7 204.8 35C218.3 34.3 231.7 32.7 245.2 31.3C258.7 30 272.3 29 286 27.7C299.7 26.3 313.3 24.7 327 22.8C340.7 21 354.3 19 368 18.2C381.7 17.3 395.3 17.7 409 18C422.7 18.3 436.3 18.7 450 20.7C463.7 22.7 477.3 26.3 491 27.5C504.7 28.7 518.3 27.3 532 25.8C545.7 24.3 559.3 22.7 573 22.2C586.7 21.7 600.3 22.3 614 24C627.7 25.7 641.3 28.3 654.8 27.5C668.3 26.7 681.7 22.3 695.2 22.3C708.7 22.3 722.3 26.7 736 29.8C749.7 33 763.3 35 777 33.2C790.7 31.3 804.3 25.7 818 24.3C831.7 23 845.3 26 859 26.7C872.7 27.3 886.3 25.7 893.2 24.8L900 24L900 0L893.2 0C886.3 0 872.7 0 859 0C845.3 0 831.7 0 818 0C804.3 0 790.7 0 777 0C763.3 0 749.7 0 736 0C722.3 0 708.7 0 695.2 0C681.7 0 668.3 0 654.8 0C641.3 0 627.7 0 614 0C600.3 0 586.7 0 573 0C559.3 0 545.7 0 532 0C518.3 0 504.7 0 491 0C477.3 0 463.7 0 450 0C436.3 0 422.7 0 409 0C395.3 0 381.7 0 368 0C354.3 0 340.7 0 327 0C313.3 0 299.7 0 286 0C272.3 0 258.7 0 245.2 0C231.7 0 218.3 0 204.8 0C191.3 0 177.7 0 164 0C150.3 0 136.7 0 123 0C109.3 0 95.7 0 82 0C68.3 0 54.7 0 41 0C27.3 0 13.7 0 6.8 0L0 0Z" fill="#00b07a"></path><path d="M0 16L6.8 15.2C13.7 14.3 27.3 12.7 41 12C54.7 11.3 68.3 11.7 82 14.5C95.7 17.3 109.3 22.7 123 23.2C136.7 23.7 150.3 19.3 164 18.5C177.7 17.7 191.3 20.3 204.8 22C218.3 23.7 231.7 24.3 245.2 24.7C258.7 25 272.3 25 286 22.5C299.7 20 313.3 15 327 12.8C340.7 10.7 354.3 11.3 368 13.8C381.7 16.3 395.3 20.7 409 21.8C422.7 23 436.3 21 450 19C463.7 17 477.3 15 491 15.7C504.7 16.3 518.3 19.7 532 21.2C545.7 22.7 559.3 22.3 573 21.8C586.7 21.3 600.3 20.7 614 19.3C627.7 18 641.3 16 654.8 17.2C668.3 18.3 681.7 22.7 695.2 22.2C708.7 21.7 722.3 16.3 736 13.5C749.7 10.7 763.3 10.3 777 12C790.7 13.7 804.3 17.3 818 17.8C831.7 18.3 845.3 15.7 859 16C872.7 16.3 886.3 19.7 893.2 21.3L900 23L900 0L893.2 0C886.3 0 872.7 0 859 0C845.3 0 831.7 0 818 0C804.3 0 790.7 0 777 0C763.3 0 749.7 0 736 0C722.3 0 708.7 0 695.2 0C681.7 0 668.3 0 654.8 0C641.3 0 627.7 0 614 0C600.3 0 586.7 0 573 0C559.3 0 545.7 0 532 0C518.3 0 504.7 0 491 0C477.3 0 463.7 0 450 0C436.3 0 422.7 0 409 0C395.3 0 381.7 0 368 0C354.3 0 340.7 0 327 0C313.3 0 299.7 0 286 0C272.3 0 258.7 0 245.2 0C231.7 0 218.3 0 204.8 0C191.3 0 177.7 0 164 0C150.3 0 136.7 0 123 0C109.3 0 95.7 0 82 0C68.3 0 54.7 0 41 0C27.3 0 13.7 0 6.8 0L0 0Z" fill="#00c778"></path><path d="M0 8L6.8 8.3C13.7 8.7 27.3 9.3 41 9.8C54.7 10.3 68.3 10.7 82 9.8C95.7 9 109.3 7 123 7C136.7 7 150.3 9 164 9.3C177.7 9.7 191.3 8.3 204.8 8.2C218.3 8 231.7 9 245.2 10C258.7 11 272.3 12 286 12.3C299.7 12.7 313.3 12.3 327 12.7C340.7 13 354.3 14 368 14.5C381.7 15 395.3 15 409 15.2C422.7 15.3 436.3 15.7 450 14.8C463.7 14 477.3 12 491 10.2C504.7 8.3 518.3 6.7 532 6.3C545.7 6 559.3 7 573 7C586.7 7 600.3 6 614 7.5C627.7 9 641.3 13 654.8 13C668.3 13 681.7 9 695.2 7.8C708.7 6.7 722.3 8.3 736 8.2C749.7 8 763.3 6 777 6.5C790.7 7 804.3 10 818 10.5C831.7 11 845.3 9 859 9.7C872.7 10.3 886.3 13.7 893.2 15.3L900 17L900 0L893.2 0C886.3 0 872.7 0 859 0C845.3 0 831.7 0 818 0C804.3 0 790.7 0 777 0C763.3 0 749.7 0 736 0C722.3 0 708.7 0 695.2 0C681.7 0 668.3 0 654.8 0C641.3 0 627.7 0 614 0C600.3 0 586.7 0 573 0C559.3 0 545.7 0 532 0C518.3 0 504.7 0 491 0C477.3 0 463.7 0 450 0C436.3 0 422.7 0 409 0C395.3 0 381.7 0 368 0C354.3 0 340.7 0 327 0C313.3 0 299.7 0 286 0C272.3 0 258.7 0 245.2 0C231.7 0 218.3 0 204.8 0C191.3 0 177.7 0 164 0C150.3 0 136.7 0 123 0C109.3 0 95.7 0 82 0C68.3 0 54.7 0 41 0C27.3 0 13.7 0 6.8 0L0 0Z" fill="#12de71"></path></svg>