<svg id="visual" viewBox="0 0 900 100" width="900" height="100" xmlns="http://www.w3.org/2000/svg" xmlns:xlink="http://www.w3.org/1999/xlink" version="1.1"><rect x="0" y="0" width="900" height="100" fill="#f8f3ef"></rect><path d="M0 52L6.8 57.2C13.7 62.3 27.3 72.7 41 72.5C54.7 72.3 68.3 61.7 82 57.2C95.7 52.7 109.3 54.3 123 56.3C136.7 58.3 150.3 60.7 164 61C177.7 61.3 191.3 59.7 204.8 64.2C218.3 68.7 231.7 79.3 245.2 78.2C258.7 77 272.3 64 286 60.3C299.7 56.7 313.3 62.3 327 66.8C340.7 71.3 354.3 74.7 368 74.7C381.7 74.7 395.3 71.3 409 68.2C422.7 65 436.3 62 450 59C463.7 56 477.3 53 491 54.3C504.7 55.7 518.3 61.3 532 66C545.7 70.7 559.3 74.3 573 73.5C586.7 72.7 600.3 67.3 614 64.8C627.7 62.3 641.3 62.7 654.8 65.7C668.3 68.7 681.7 74.3 695.2 77.3C708.7 80.3 722.3 80.7 736 75.7C749.7 70.7 763.3 60.3 777 61C790.7 61.7 804.3 73.3 818 76.3C831.7 79.3 845.3 73.7 859 72.3C872.7 71 886.3 74 893.2 75.5L900 77L900 0L893.2 0C886.3 0 872.7 0 859 0C845.3 0 831.7 0 818 0C804.3 0 790.7 0 777 0C763.3 0 749.7 0 736 0C722.3 0 708.7 0 695.2 0C681.7 0 668.3 0 654.8 0C641.3 0 627.7 0 614 0C600.3 0 586.7 0 573 0C559.3 0 545.7 0 532 0C518.3 0 504.7 0 491 0C477.3 0 463.7 0 450 0C436.3 0 422.7 0 409 0C395.3 0 381.7 0 368 0C354.3 0 340.7 0 327 0C313.3 0 299.7 0 286 0C272.3 0 258.7 0 245.2 0C231.7 0 218.3 0 204.8 0C191.3 0 177.7 0 164 0C150.3 0 136.7 0 123 0C109.3 0 95.7 0 82 0C68.3 0 54.7 0 41 0C27.3 0 13.7 0 6.8 0L0 0Z" fill="#12de71"></path><path d="M0 79L6.8 74.2C13.7 69.3 27.3 59.7 41 56C54.7 52.3 68.3 54.7 82 58C95.7 61.3 109.3 65.7 123 63.5C136.7 61.3 150.3 52.7 164 51.7C177.7 50.7 191.3 57.3 204.8 59.3C218.3 61.3 231.7 58.7 245.2 56C258.7 53.3 272.3 50.7 286 49.8C299.7 49 313.3 50 327 52.8C340.7 55.7 354.3 60.3 368 60.7C381.7 61 395.3 57 409 57.2C422.7 57.3 436.3 61.7 450 61.5C463.7 61.3 477.3 56.7 491 57.3C504.7 58 518.3 64 532 65.8C545.7 67.7 559.3 65.3 573 61.2C586.7 57 600.3 51 614 49.5C627.7 48 641.3 51 654.8 53.2C668.3 55.3 681.7 56.7 695.2 56.2C708.7 55.7 722.3 53.3 736 56.5C749.7 59.7 763.3 68.3 777 68.2C790.7 68 804.3 59 818 57C831.7 55 845.3 60 859 62.8C872.7 65.7 886.3 66.3 893.2 66.7L900 67L900 0L893.2 0C886.3 0 872.7 0 859 0C845.3 0 831.7 0 818 0C804.3 0 790.7 0 777 0C763.3 0 749.7 0 736 0C722.3 0 708.7 0 695.2 0C681.7 0 668.3 0 654.8 0C641.3 0 627.7 0 614 0C600.3 0 586.7 0 573 0C559.3 0 545.7 0 532 0C518.3 0 504.7 0 491 0C477.3 0 463.7 0 450 0C436.3 0 422.7 0 409 0C395.3 0 381.7 0 368 0C354.3 0 340.7 0 327 0C313.3 0 299.7 0 286 0C272.3 0 258.7 0 245.2 0C231.7 0 218.3 0 204.8 0C191.3 0 177.7 0 164 0C150.3 0 136.7 0 123 0C109.3 0 95.7 0 82 0C68.3 0 54.7 0 41 0C27.3 0 13.7 0 6.8 0L0 0Z" fill="#00c778"></path><path d="M0 64L6.8 63.2C13.7 62.3 27.3 60.7 41 57.7C54.7 54.7 68.3 50.3 82 47.2C95.7 44 109.3 42 123 43.3C136.7 44.7 150.3 49.3 164 51.8C177.7 54.3 191.3 54.7 204.8 56.2C218.3 57.7 231.7 60.3 245.2 59.5C258.7 58.7 272.3 54.3 286 50.2C299.7 46 313.3 42 327 42.8C340.7 43.7 354.3 49.3 368 54.2C381.7 59 395.3 63 409 62C422.7 61 436.3 55 450 51.3C463.7 47.7 477.3 46.3 491 45.3C504.7 44.3 518.3 43.7 532 44.5C545.7 45.3 559.3 47.7 573 51C586.7 54.3 600.3 58.7 614 59.3C627.7 60 641.3 57 654.8 52.7C668.3 48.3 681.7 42.7 695.2 40.2C708.7 37.7 722.3 38.3 736 42.3C749.7 46.3 763.3 53.7 777 55.2C790.7 56.7 804.3 52.3 818 51.7C831.7 51 845.3 54 859 51.8C872.7 49.7 886.3 42.3 893.2 38.7L900 35L900 0L893.2 0C886.3 0 872.7 0 859 0C845.3 0 831.7 0 818 0C804.3 0 790.7 0 777 0C763.3 0 749.7 0 736 0C722.3 0 708.7 0 695.2 0C681.7 0 668.3 0 654.8 0C641.3 0 627.7 0 614 0C600.3 0 586.7 0 573 0C559.3 0 545.7 0 532 0C518.3 0 504.7 0 491 0C477.3 0 463.7 0 450 0C436.3 0 422.7 0 409 0C395.3 0 381.7 0 368 0C354.3 0 340.7 0 327 0C313.3 0 299.7 0 286 0C272.3 0 258.7 0 245.2 0C231.7 0 218.3 0 204.8 0C191.3 0 177.7 0 164 0C150.3 0 136.7 0 123 0C109.3 0 95.7 0 82 0C68.3 0 54.7 0 41 0C27.3 0 13.7 0 6.8 0L0 0Z" fill="#00b07a"></path><path d="M0 46L6.8 47.2C13.7 48.3 27.3 50.7 41 50.2C54.7 49.7 68.3 46.3 82 47C95.7 47.7 109.3 52.3 123 54.5C136.7 56.7 150.3 56.3 164 55.7C177.7 55 191.3 54 204.8 53.7C218.3 53.3 231.7 53.7 245.2 51.2C258.7 48.7 272.3 43.3 286 41.7C299.7 40 313.3 42 327 42.5C340.7 43 354.3 42 368 41.3C381.7 40.7 395.3 40.3 409 38.8C422.7 37.3 436.3 34.7 450 35.5C463.7 36.3 477.3 40.7 491 40.3C504.7 40 518.3 35 532 33.3C545.7 31.7 559.3 33.3 573 36.7C586.7 40 600.3 45 614 45.7C627.7 46.3 641.3 42.7 654.8 44.2C668.3 45.7 681.7 52.3 695.2 51.2C708.7 50 722.3 41 736 39.5C749.7 38 763.3 44 777 46.5C790.7 49 804.3 48 818 48.7C831.7 49.3 845.3 51.7 859 52.3C872.7 53 886.3 52 893.2 51.5L900 51L900 0L893.2 0C886.3 0 872.7 0 859 0C845.3 0 831.7 0 818 0C804.3 0 790.7 0 777 0C763.3 0 749.7 0 736 0C722.3 0 708.7 0 695.2 0C681.7 0 668.3 0 654.8 0C641.3 0 627.7 0 614 0C600.3 0 586.7 0 573 0C559.3 0 545.7 0 532 0C518.3 0 504.7 0 491 0C477.3 0 463.7 0 450 0C436.3 0 422.7 0 409 0C395.3 0 381.7 0 368 0C354.3 0 340.7 0 327 0C313.3 0 299.7 0 286 0C272.3 0 258.7 0 245.2 0C231.7 0 218.3 0 204.8 0C191.3 0 177.7 0 164 0C150.3 0 136.7 0 123 0C109.3 0 95.7 0 82 0C68.3 0 54.7 0 41 0C27.3 0 13.7 0 6.8 0L0 0Z" fill="#009976"></path><path d="M0 48L6.8 46.2C13.7 44.3 27.3 40.7 41 40C54.7 39.3 68.3 41.7 82 39.8C95.7 38 109.3 32 123 29C136.7 26 150.3 26 164 27.7C177.7 29.3 191.3 32.7 204.8 33.7C218.3 34.7 231.7 33.3 245.2 32.7C258.7 32 272.3 32 286 31.3C299.7 30.7 313.3 29.3 327 30.7C340.7 32 354.3 36 368 37.2C381.7 38.3 395.3 36.7 409 34C422.7 31.3 436.3 27.7 450 29.5C463.7 31.3 477.3 38.7 491 38.8C504.7 39 518.3 32 532 31C545.7 30 559.3 35 573 36.7C586.7 38.3 600.3 36.7 614 36.5C627.7 36.3 641.3 37.7 654.8 39.2C668.3 40.7 681.7 42.3 695.2 41.2C708.7 40 722.3 36 736 34C749.7 32 763.3 32 777 32.7C790.7 33.3 804.3 34.7 818 36.8C831.7 39 845.3 42 859 40.2C872.7 38.3 886.3 31.7 893.2 28.3L900 25L900 0L893.2 0C886.3 0 872.7 0 859 0C845.3 0 831.7 0 818 0C804.3 0 790.7 0 777 0C763.3 0 749.7 0 736 0C722.3 0 708.7 0 695.2 0C681.7 0 668.3 0 654.8 0C641.3 0 627.7 0 614 0C600.3 0 586.7 0 573 0C559.3 0 545.7 0 532 0C518.3 0 504.7 0 491 0C477.3 0 463.7 0 450 0C436.3 0 422.7 0 409 0C395.3 0 381.7 0 368 0C354.3 0 340.7 0 327 0C313.3 0 299.7 0 286 0C272.3 0 258.7 0 245.2 0C231.7 0 218.3 0 204.8 0C191.3 0 177.7 0 164 0C150.3 0 136.7 0 123 0C109.3 0 95.7 0 82 0C68.3 0 54.7 0 41 0C27.3 0 13.7 0 6.8 0L0 0Z" fill="#00826e"></path><path d="M0 37L6.8 36.8C13.7 36.7 27.3 36.3 41 35.5C54.7 34.7 68.3 33.3 82 30.7C95.7 28 109.3 24 123 24C136.7 24 150.3 28 164 30C177.7 32 191.3 32 204.8 30.8C218.3 29.7 231.7 27.3 245.2 27.7C258.7 28 272.3 31 286 30.2C299.7 29.3 313.3 24.7 327 23.5C340.7 22.3 354.3 24.7 368 25.5C381.7 26.3 395.3 25.7 409 25.7C422.7 25.7 436.3 26.3 450 25.7C463.7 25 477.3 23 491 22.3C504.7 21.7 518.3 22.3 532 22.7C545.7 23 559.3 23 573 24.8C586.7 26.7 600.3 30.3 614 29.3C627.7 28.3 641.3 22.7 654.8 20.3C668.3 18 681.7 19 695.2 20.7C708.7 22.3 722.3 24.7 736 24.8C749.7 25 763.3 23 777 21.2C790.7 19.3 804.3 17.7 818 20.3C831.7 23 845.3 30 859 31.8C872.7 33.7 886.3 30.3 893.2 28.7L900 27L900 0L893.2 0C886.3 0 872.7 0 859 0C845.3 0 831.7 0 818 0C804.3 0 790.7 0 777 0C763.3 0 749.7 0 736 0C722.3 0 708.7 0 695.2 0C681.7 0 668.3 0 654.8 0C641.3 0 627.7 0 614 0C600.3 0 586.7 0 573 0C559.3 0 545.7 0 532 0C518.3 0 504.7 0 491 0C477.3 0 463.7 0 450 0C436.3 0 422.7 0 409 0C395.3 0 381.7 0 368 0C354.3 0 340.7 0 327 0C313.3 0 299.7 0 286 0C272.3 0 258.7 0 245.2 0C231.7 0 218.3 0 204.8 0C191.3 0 177.7 0 164 0C150.3 0 136.7 0 123 0C109.3 0 95.7 0 82 0C68.3 0 54.7 0 41 0C27.3 0 13.7 0 6.8 0L0 0Z" fill="#006b63"></path><path d="M0 24L6.8 22.2C13.7 20.3 27.3 16.7 41 14.5C54.7 12.3 68.3 11.7 82 12.7C95.7 13.7 109.3 16.3 123 16.7C136.7 17 150.3 15 164 15.5C177.7 16 191.3 19 204.8 18.3C218.3 17.7 231.7 13.3 245.2 13.3C258.7 13.3 272.3 17.7 286 20.3C299.7 23 313.3 24 327 23C340.7 22 354.3 19 368 18.7C381.7 18.3 395.3 20.7 409 20.5C422.7 20.3 436.3 17.7 450 18.3C463.7 19 477.3 23 491 24.5C504.7 26 518.3 25 532 23C545.7 21 559.3 18 573 16.5C586.7 15 600.3 15 614 14.3C627.7 13.7 641.3 12.3 654.8 12.7C668.3 13 681.7 15 695.2 16.2C708.7 17.3 722.3 17.7 736 19.3C749.7 21 763.3 24 777 25C790.7 26 804.3 25 818 24C831.7 23 845.3 22 859 22.2C872.7 22.3 886.3 23.7 893.2 24.3L900 25L900 0L893.2 0C886.3 0 872.7 0 859 0C845.3 0 831.7 0 818 0C804.3 0 790.7 0 777 0C763.3 0 749.7 0 736 0C722.3 0 708.7 0 695.2 0C681.7 0 668.3 0 654.8 0C641.3 0 627.7 0 614 0C600.3 0 586.7 0 573 0C559.3 0 545.7 0 532 0C518.3 0 504.7 0 491 0C477.3 0 463.7 0 450 0C436.3 0 422.7 0 409 0C395.3 0 381.7 0 368 0C354.3 0 340.7 0 327 0C313.3 0 299.7 0 286 0C272.3 0 258.7 0 245.2 0C231.7 0 218.3 0 204.8 0C191.3 0 177.7 0 164 0C150.3 0 136.7 0 123 0C109.3 0 95.7 0 82 0C68.3 0 54.7 0 41 0C27.3 0 13.7 0 6.8 0L0 0Z" fill="#005554"></path><path d="M0 5L6.8 5.2C13.7 5.3 27.3 5.7 41 7.8C54.7 10 68.3 14 82 14.3C95.7 14.7 109.3 11.3 123 9.5C136.7 7.7 150.3 7.3 164 7.7C177.7 8 191.3 9 204.8 8.8C218.3 8.7 231.7 7.3 245.2 6.5C258.7 5.7 272.3 5.3 286 6.2C299.7 7 313.3 9 327 11.2C340.7 13.3 354.3 15.7 368 14.3C381.7 13 395.3 8 409 5.5C422.7 3 436.3 3 450 4.5C463.7 6 477.3 9 491 9.8C504.7 10.7 518.3 9.3 532 7.8C545.7 6.3 559.3 4.7 573 4.8C586.7 5 600.3 7 614 8.2C627.7 9.3 641.3 9.7 654.8 10.5C668.3 11.3 681.7 12.7 695.2 13.3C708.7 14 722.3 14 736 14.3C749.7 14.7 763.3 15.3 777 14.8C790.7 14.3 804.3 12.7 818 11.8C831.7 11 845.3 11 859 11.5C872.7 12 886.3 13 893.2 13.5L900 14L900 0L893.2 0C886.3 0 872.7 0 859 0C845.3 0 831.7 0 818 0C804.3 0 790.7 0 777 0C763.3 0 749.7 0 736 0C722.3 0 708.7 0 695.2 0C681.7 0 668.3 0 654.8 0C641.3 0 627.7 0 614 0C600.3 0 586.7 0 573 0C559.3 0 545.7 0 532 0C518.3 0 504.7 0 491 0C477.3 0 463.7 0 450 0C436.3 0 422.7 0 409 0C395.3 0 381.7 0 368 0C354.3 0 340.7 0 327 0C313.3 0 299.7 0 286 0C272.3 0 258.7 0 245.2 0C231.7 0 218.3 0 204.8 0C191.3 0 177.7 0 164 0C150.3 0 136.7 0 123 0C109.3 0 95.7 0 82 0C68.3 0 54.7 0 41 0C27.3 0 13.7 0 6.8 0L0 0Z" fill="#024043"></path></svg>