<svg id="visual" viewBox="0 0 900 100" width="900" height="100" xmlns="http://www.w3.org/2000/svg" xmlns:xlink="http://www.w3.org/1999/xlink" version="1.1"><rect x="0" y="0" width="900" height="100" fill="#131313"></rect><path d="M0 44L6.5 48C13 52 26 60 39 68.7C52 77.3 65 86.7 78 85.2C91 83.7 104 71.3 117.2 70C130.3 68.7 143.7 78.3 156.8 83.8C170 89.3 183 90.7 196 83.8C209 77 222 62 235 57.3C248 52.7 261 58.3 274 65.8C287 73.3 300 82.7 313 83.8C326 85 339 78 352 77.8C365 77.7 378 84.3 391 81.8C404 79.3 417 67.7 430.2 64.7C443.3 61.7 456.7 67.3 469.8 65.2C483 63 496 53 509 55C522 57 535 71 548 74.5C561 78 574 71 587 68C600 65 613 66 626 63.2C639 60.3 652 53.7 665 56C678 58.3 691 69.7 704 77.7C717 85.7 730 90.3 743.2 92.8C756.3 95.3 769.7 95.7 782.8 95C796 94.3 809 92.7 822 85.8C835 79 848 67 861 60C874 53 887 51 893.5 50L900 49L900 0L893.5 0C887 0 874 0 861 0C848 0 835 0 822 0C809 0 796 0 782.8 0C769.7 0 756.3 0 743.2 0C730 0 717 0 704 0C691 0 678 0 665 0C652 0 639 0 626 0C613 0 600 0 587 0C574 0 561 0 548 0C535 0 522 0 509 0C496 0 483 0 469.8 0C456.7 0 443.3 0 430.2 0C417 0 404 0 391 0C378 0 365 0 352 0C339 0 326 0 313 0C300 0 287 0 274 0C261 0 248 0 235 0C222 0 209 0 196 0C183 0 170 0 156.8 0C143.7 0 130.3 0 117.2 0C104 0 91 0 78 0C65 0 52 0 39 0C26 0 13 0 6.5 0L0 0Z" fill="#b1241a"></path><path d="M0 44L6.5 50.7C13 57.3 26 70.7 39 72C52 73.3 65 62.7 78 54.3C91 46 104 40 117.2 45.3C130.3 50.7 143.7 67.3 156.8 70C170 72.7 183 61.3 196 57.3C209 53.3 222 56.7 235 61.5C248 66.3 261 72.7 274 75.7C287 78.7 300 78.3 313 71.5C326 64.7 339 51.3 352 47C365 42.7 378 47.3 391 49.3C404 51.3 417 50.7 430.2 55.8C443.3 61 456.7 72 469.8 72.5C483 73 496 63 509 57.8C522 52.7 535 52.3 548 53.2C561 54 574 56 587 59.5C600 63 613 68 626 70.2C639 72.3 652 71.7 665 66.7C678 61.7 691 52.3 704 45.7C717 39 730 35 743.2 38.3C756.3 41.7 769.7 52.3 782.8 56C796 59.7 809 56.3 822 55.5C835 54.7 848 56.3 861 60.7C874 65 887 72 893.5 75.5L900 79L900 0L893.5 0C887 0 874 0 861 0C848 0 835 0 822 0C809 0 796 0 782.8 0C769.7 0 756.3 0 743.2 0C730 0 717 0 704 0C691 0 678 0 665 0C652 0 639 0 626 0C613 0 600 0 587 0C574 0 561 0 548 0C535 0 522 0 509 0C496 0 483 0 469.8 0C456.7 0 443.3 0 430.2 0C417 0 404 0 391 0C378 0 365 0 352 0C339 0 326 0 313 0C300 0 287 0 274 0C261 0 248 0 235 0C222 0 209 0 196 0C183 0 170 0 156.8 0C143.7 0 130.3 0 117.2 0C104 0 91 0 78 0C65 0 52 0 39 0C26 0 13 0 6.5 0L0 0Z" fill="#c24419"></path><path d="M0 72L6.5 66.7C13 61.3 26 50.7 39 43.7C52 36.7 65 33.3 78 35.5C91 37.7 104 45.3 117.2 50.7C130.3 56 143.7 59 156.8 61.5C170 64 183 66 196 66C209 66 222 64 235 57.5C248 51 261 40 274 37.5C287 35 300 41 313 46C326 51 339 55 352 59C365 63 378 67 391 61.8C404 56.7 417 42.3 430.2 39.7C443.3 37 456.7 46 469.8 45.5C483 45 496 35 509 30.5C522 26 535 27 548 28.5C561 30 574 32 587 33.7C600 35.3 613 36.7 626 41.3C639 46 652 54 665 55.3C678 56.7 691 51.3 704 45.5C717 39.7 730 33.3 743.2 31.8C756.3 30.3 769.7 33.7 782.8 41.2C796 48.7 809 60.3 822 60.5C835 60.7 848 49.3 861 44C874 38.7 887 39.3 893.5 39.7L900 40L900 0L893.5 0C887 0 874 0 861 0C848 0 835 0 822 0C809 0 796 0 782.8 0C769.7 0 756.3 0 743.2 0C730 0 717 0 704 0C691 0 678 0 665 0C652 0 639 0 626 0C613 0 600 0 587 0C574 0 561 0 548 0C535 0 522 0 509 0C496 0 483 0 469.8 0C456.7 0 443.3 0 430.2 0C417 0 404 0 391 0C378 0 365 0 352 0C339 0 326 0 313 0C300 0 287 0 274 0C261 0 248 0 235 0C222 0 209 0 196 0C183 0 170 0 156.8 0C143.7 0 130.3 0 117.2 0C104 0 91 0 78 0C65 0 52 0 39 0C26 0 13 0 6.5 0L0 0Z" fill="#d15f18"></path><path d="M0 28L6.5 30.7C13 33.3 26 38.7 39 39.2C52 39.7 65 35.3 78 33.2C91 31 104 31 117.2 28.8C130.3 26.7 143.7 22.3 156.8 20.5C170 18.7 183 19.3 196 22.7C209 26 222 32 235 35.7C248 39.3 261 40.7 274 41.3C287 42 300 42 313 40.2C326 38.3 339 34.7 352 30.7C365 26.7 378 22.3 391 24.5C404 26.7 417 35.3 430.2 36.8C443.3 38.3 456.7 32.7 469.8 30.3C483 28 496 29 509 33C522 37 535 44 548 47.8C561 51.7 574 52.3 587 49C600 45.7 613 38.3 626 38.3C639 38.3 652 45.7 665 50.3C678 55 691 57 704 56.2C717 55.3 730 51.7 743.2 49.2C756.3 46.7 769.7 45.3 782.8 41C796 36.7 809 29.3 822 25.2C835 21 848 20 861 20.5C874 21 887 23 893.5 24L900 25L900 0L893.5 0C887 0 874 0 861 0C848 0 835 0 822 0C809 0 796 0 782.8 0C769.7 0 756.3 0 743.2 0C730 0 717 0 704 0C691 0 678 0 665 0C652 0 639 0 626 0C613 0 600 0 587 0C574 0 561 0 548 0C535 0 522 0 509 0C496 0 483 0 469.8 0C456.7 0 443.3 0 430.2 0C417 0 404 0 391 0C378 0 365 0 352 0C339 0 326 0 313 0C300 0 287 0 274 0C261 0 248 0 235 0C222 0 209 0 196 0C183 0 170 0 156.8 0C143.7 0 130.3 0 117.2 0C104 0 91 0 78 0C65 0 52 0 39 0C26 0 13 0 6.5 0L0 0Z" fill="#de7a19"></path><path d="M0 33L6.5 31.8C13 30.7 26 28.3 39 29.2C52 30 65 34 78 34.8C91 35.7 104 33.3 117.2 30.7C130.3 28 143.7 25 156.8 27.7C170 30.3 183 38.7 196 39.5C209 40.3 222 33.7 235 28.2C248 22.7 261 18.3 274 16.7C287 15 300 16 313 17.3C326 18.7 339 20.3 352 24.8C365 29.3 378 36.7 391 40.7C404 44.7 417 45.3 430.2 44.3C443.3 43.3 456.7 40.7 469.8 40C483 39.3 496 40.7 509 40.5C522 40.3 535 38.7 548 34C561 29.3 574 21.7 587 20C600 18.3 613 22.7 626 24.3C639 26 652 25 665 25.5C678 26 691 28 704 29.2C717 30.3 730 30.7 743.2 28.3C756.3 26 769.7 21 782.8 20.5C796 20 809 24 822 26.7C835 29.3 848 30.7 861 33C874 35.3 887 38.7 893.5 40.3L900 42L900 0L893.5 0C887 0 874 0 861 0C848 0 835 0 822 0C809 0 796 0 782.8 0C769.7 0 756.3 0 743.2 0C730 0 717 0 704 0C691 0 678 0 665 0C652 0 639 0 626 0C613 0 600 0 587 0C574 0 561 0 548 0C535 0 522 0 509 0C496 0 483 0 469.8 0C456.7 0 443.3 0 430.2 0C417 0 404 0 391 0C378 0 365 0 352 0C339 0 326 0 313 0C300 0 287 0 274 0C261 0 248 0 235 0C222 0 209 0 196 0C183 0 170 0 156.8 0C143.7 0 130.3 0 117.2 0C104 0 91 0 78 0C65 0 52 0 39 0C26 0 13 0 6.5 0L0 0Z" fill="#e9951f"></path><path d="M0 31L6.5 31.2C13 31.3 26 31.7 39 29C52 26.3 65 20.7 78 19.7C91 18.7 104 22.3 117.2 23C130.3 23.7 143.7 21.3 156.8 21.5C170 21.7 183 24.3 196 24C209 23.7 222 20.3 235 18.5C248 16.7 261 16.3 274 16.5C287 16.7 300 17.3 313 16.3C326 15.3 339 12.7 352 15.3C365 18 378 26 391 29.8C404 33.7 417 33.3 430.2 32.8C443.3 32.3 456.7 31.7 469.8 29.5C483 27.3 496 23.7 509 22.8C522 22 535 24 548 22.2C561 20.3 574 14.7 587 15C600 15.3 613 21.7 626 22.2C639 22.7 652 17.3 665 17.7C678 18 691 24 704 26.3C717 28.7 730 27.3 743.2 23.5C756.3 19.7 769.7 13.3 782.8 14C796 14.7 809 22.3 822 23C835 23.7 848 17.3 861 15.7C874 14 887 17 893.5 18.5L900 20L900 0L893.5 0C887 0 874 0 861 0C848 0 835 0 822 0C809 0 796 0 782.8 0C769.7 0 756.3 0 743.2 0C730 0 717 0 704 0C691 0 678 0 665 0C652 0 639 0 626 0C613 0 600 0 587 0C574 0 561 0 548 0C535 0 522 0 509 0C496 0 483 0 469.8 0C456.7 0 443.3 0 430.2 0C417 0 404 0 391 0C378 0 365 0 352 0C339 0 326 0 313 0C300 0 287 0 274 0C261 0 248 0 235 0C222 0 209 0 196 0C183 0 170 0 156.8 0C143.7 0 130.3 0 117.2 0C104 0 91 0 78 0C65 0 52 0 39 0C26 0 13 0 6.5 0L0 0Z" fill="#f3af29"></path><path d="M0 20L6.5 17.2C13 14.3 26 8.7 39 9.2C52 9.7 65 16.3 78 17.7C91 19 104 15 117.2 13.5C130.3 12 143.7 13 156.8 14.3C170 15.7 183 17.3 196 15.3C209 13.3 222 7.7 235 7C248 6.3 261 10.7 274 10.3C287 10 300 5 313 5.7C326 6.3 339 12.7 352 14.7C365 16.7 378 14.3 391 11.7C404 9 417 6 430.2 6.3C443.3 6.7 456.7 10.3 469.8 12.7C483 15 496 16 509 13.8C522 11.7 535 6.3 548 4C561 1.7 574 2.3 587 2.5C600 2.7 613 2.3 626 3.5C639 4.7 652 7.3 665 10.7C678 14 691 18 704 18.2C717 18.3 730 14.7 743.2 12C756.3 9.3 769.7 7.7 782.8 5.8C796 4 809 2 822 2C835 2 848 4 861 5.8C874 7.7 887 9.3 893.5 10.2L900 11L900 0L893.5 0C887 0 874 0 861 0C848 0 835 0 822 0C809 0 796 0 782.8 0C769.7 0 756.3 0 743.2 0C730 0 717 0 704 0C691 0 678 0 665 0C652 0 639 0 626 0C613 0 600 0 587 0C574 0 561 0 548 0C535 0 522 0 509 0C496 0 483 0 469.8 0C456.7 0 443.3 0 430.2 0C417 0 404 0 391 0C378 0 365 0 352 0C339 0 326 0 313 0C300 0 287 0 274 0C261 0 248 0 235 0C222 0 209 0 196 0C183 0 170 0 156.8 0C143.7 0 130.3 0 117.2 0C104 0 91 0 78 0C65 0 52 0 39 0C26 0 13 0 6.5 0L0 0Z" fill="#faca38"></path></svg>