<svg id="visual" viewBox="0 0 900 300" width="900" height="300" xmlns="http://www.w3.org/2000/svg" xmlns:xlink="http://www.w3.org/1999/xlink" version="1.1"><rect x="0" y="0" width="900" height="300" fill="#131313"></rect><path d="M0 188L21.5 191C43 194 86 200 128.8 198.3C171.7 196.7 214.3 187.3 257.2 184.5C300 181.7 343 185.3 385.8 191.7C428.7 198 471.3 207 514.2 209.5C557 212 600 208 642.8 203.7C685.7 199.3 728.3 194.7 771.2 191.2C814 187.7 857 185.3 878.5 184.2L900 183L900 301L878.5 301C857 301 814 301 771.2 301C728.3 301 685.7 301 642.8 301C600 301 557 301 514.2 301C471.3 301 428.7 301 385.8 301C343 301 300 301 257.2 301C214.3 301 171.7 301 128.8 301C86 301 43 301 21.5 301L0 301Z" fill="#b1241a"></path><path d="M0 210L21.5 213C43 216 86 222 128.8 224C171.7 226 214.3 224 257.2 221.3C300 218.7 343 215.3 385.8 218.2C428.7 221 471.3 230 514.2 229C557 228 600 217 642.8 210.3C685.7 203.7 728.3 201.3 771.2 203.8C814 206.3 857 213.7 878.5 217.3L900 221L900 301L878.5 301C857 301 814 301 771.2 301C728.3 301 685.7 301 642.8 301C600 301 557 301 514.2 301C471.3 301 428.7 301 385.8 301C343 301 300 301 257.2 301C214.3 301 171.7 301 128.8 301C86 301 43 301 21.5 301L0 301Z" fill="#ca5218"></path><path d="M0 230L21.5 229.2C43 228.3 86 226.7 128.8 230.7C171.7 234.7 214.3 244.3 257.2 246.5C300 248.7 343 243.3 385.8 238.8C428.7 234.3 471.3 230.7 514.2 231.3C557 232 600 237 642.8 241.2C685.7 245.3 728.3 248.7 771.2 244.8C814 241 857 230 878.5 224.5L900 219L900 301L878.5 301C857 301 814 301 771.2 301C728.3 301 685.7 301 642.8 301C600 301 557 301 514.2 301C471.3 301 428.7 301 385.8 301C343 301 300 301 257.2 301C214.3 301 171.7 301 128.8 301C86 301 43 301 21.5 301L0 301Z" fill="#de7a19"></path><path d="M0 245L21.5 248.8C43 252.7 86 260.3 128.8 263.8C171.7 267.3 214.3 266.7 257.2 266.5C300 266.3 343 266.7 385.8 262.5C428.7 258.3 471.3 249.7 514.2 248.8C557 248 600 255 642.8 257.2C685.7 259.3 728.3 256.7 771.2 256.3C814 256 857 258 878.5 259L900 260L900 301L878.5 301C857 301 814 301 771.2 301C728.3 301 685.7 301 642.8 301C600 301 557 301 514.2 301C471.3 301 428.7 301 385.8 301C343 301 300 301 257.2 301C214.3 301 171.7 301 128.8 301C86 301 43 301 21.5 301L0 301Z" fill="#eea223"></path><path d="M0 266L21.5 266.2C43 266.3 86 266.7 128.8 267.5C171.7 268.3 214.3 269.7 257.2 272.3C300 275 343 279 385.8 279C428.7 279 471.3 275 514.2 273.3C557 271.7 600 272.3 642.8 271.2C685.7 270 728.3 267 771.2 266.8C814 266.7 857 269.3 878.5 270.7L900 272L900 301L878.5 301C857 301 814 301 771.2 301C728.3 301 685.7 301 642.8 301C600 301 557 301 514.2 301C471.3 301 428.7 301 385.8 301C343 301 300 301 257.2 301C214.3 301 171.7 301 128.8 301C86 301 43 301 21.5 301L0 301Z" fill="#faca38"></path></svg>